<?xml version="1.0" encoding="utf-8"?>
<svg xmlns="http://www.w3.org/2000/svg" xmlns:xlink="http://www.w3.org/1999/xlink" width="600" height="400" viewBox="0 0 2400 1600">
<defs>
  <clipPath id="clip760">
    <rect x="0" y="0" width="2400" height="1600"/>
  </clipPath>
</defs>
<path clip-path="url(#clip760)" d="M0 1600 L2400 1600 L2400 0 L0 0  Z" fill="#ffffff" fill-rule="evenodd" fill-opacity="1"/>
<defs>
  <clipPath id="clip761">
    <rect x="480" y="0" width="1681" height="1600"/>
  </clipPath>
</defs>
<path clip-path="url(#clip760)" d="M232.389 1423.18 L2352.76 1423.18 L2352.76 123.472 L232.389 123.472  Z" fill="#ffffff" fill-rule="evenodd" fill-opacity="1"/>
<defs>
  <clipPath id="clip762">
    <rect x="232" y="123" width="2121" height="1301"/>
  </clipPath>
</defs>
<polyline clip-path="url(#clip762)" style="stroke:#000000; stroke-linecap:round; stroke-linejoin:round; stroke-width:2; stroke-opacity:0.1; fill:none" points="612.455,1423.18 612.455,123.472 "/>
<polyline clip-path="url(#clip762)" style="stroke:#000000; stroke-linecap:round; stroke-linejoin:round; stroke-width:2; stroke-opacity:0.1; fill:none" points="1012.52,1423.18 1012.52,123.472 "/>
<polyline clip-path="url(#clip762)" style="stroke:#000000; stroke-linecap:round; stroke-linejoin:round; stroke-width:2; stroke-opacity:0.1; fill:none" points="1412.59,1423.18 1412.59,123.472 "/>
<polyline clip-path="url(#clip762)" style="stroke:#000000; stroke-linecap:round; stroke-linejoin:round; stroke-width:2; stroke-opacity:0.1; fill:none" points="1812.66,1423.18 1812.66,123.472 "/>
<polyline clip-path="url(#clip762)" style="stroke:#000000; stroke-linecap:round; stroke-linejoin:round; stroke-width:2; stroke-opacity:0.1; fill:none" points="2212.73,1423.18 2212.73,123.472 "/>
<polyline clip-path="url(#clip760)" style="stroke:#000000; stroke-linecap:round; stroke-linejoin:round; stroke-width:4; stroke-opacity:1; fill:none" points="232.389,1423.18 2352.76,1423.18 "/>
<polyline clip-path="url(#clip760)" style="stroke:#000000; stroke-linecap:round; stroke-linejoin:round; stroke-width:4; stroke-opacity:1; fill:none" points="612.455,1423.18 612.455,1404.28 "/>
<polyline clip-path="url(#clip760)" style="stroke:#000000; stroke-linecap:round; stroke-linejoin:round; stroke-width:4; stroke-opacity:1; fill:none" points="1012.52,1423.18 1012.52,1404.28 "/>
<polyline clip-path="url(#clip760)" style="stroke:#000000; stroke-linecap:round; stroke-linejoin:round; stroke-width:4; stroke-opacity:1; fill:none" points="1412.59,1423.18 1412.59,1404.28 "/>
<polyline clip-path="url(#clip760)" style="stroke:#000000; stroke-linecap:round; stroke-linejoin:round; stroke-width:4; stroke-opacity:1; fill:none" points="1812.66,1423.18 1812.66,1404.28 "/>
<polyline clip-path="url(#clip760)" style="stroke:#000000; stroke-linecap:round; stroke-linejoin:round; stroke-width:4; stroke-opacity:1; fill:none" points="2212.73,1423.18 2212.73,1404.28 "/>
<path clip-path="url(#clip760)" d="M602.733 1451.02 L621.089 1451.02 L621.089 1454.96 L607.015 1454.96 L607.015 1463.43 Q608.034 1463.08 609.052 1462.92 Q610.071 1462.73 611.089 1462.73 Q616.876 1462.73 620.256 1465.9 Q623.636 1469.08 623.636 1474.49 Q623.636 1480.07 620.163 1483.17 Q616.691 1486.25 610.372 1486.25 Q608.196 1486.25 605.927 1485.88 Q603.682 1485.51 601.275 1484.77 L601.275 1480.07 Q603.358 1481.2 605.58 1481.76 Q607.802 1482.32 610.279 1482.32 Q614.284 1482.32 616.622 1480.21 Q618.96 1478.1 618.96 1474.49 Q618.96 1470.88 616.622 1468.77 Q614.284 1466.67 610.279 1466.67 Q608.404 1466.67 606.529 1467.08 Q604.677 1467.5 602.733 1468.38 L602.733 1451.02 Z" fill="#000000" fill-rule="nonzero" fill-opacity="1" /><path clip-path="url(#clip760)" d="M987.212 1481.64 L994.851 1481.64 L994.851 1455.28 L986.541 1456.95 L986.541 1452.69 L994.804 1451.02 L999.48 1451.02 L999.48 1481.64 L1007.12 1481.64 L1007.12 1485.58 L987.212 1485.58 L987.212 1481.64 Z" fill="#000000" fill-rule="nonzero" fill-opacity="1" /><path clip-path="url(#clip760)" d="M1026.56 1454.1 Q1022.95 1454.1 1021.12 1457.66 Q1019.32 1461.2 1019.32 1468.33 Q1019.32 1475.44 1021.12 1479.01 Q1022.95 1482.55 1026.56 1482.55 Q1030.2 1482.55 1032 1479.01 Q1033.83 1475.44 1033.83 1468.33 Q1033.83 1461.2 1032 1457.66 Q1030.2 1454.1 1026.56 1454.1 M1026.56 1450.39 Q1032.37 1450.39 1035.43 1455 Q1038.51 1459.58 1038.51 1468.33 Q1038.51 1477.06 1035.43 1481.67 Q1032.37 1486.25 1026.56 1486.25 Q1020.75 1486.25 1017.67 1481.67 Q1014.62 1477.06 1014.62 1468.33 Q1014.62 1459.58 1017.67 1455 Q1020.75 1450.39 1026.56 1450.39 Z" fill="#000000" fill-rule="nonzero" fill-opacity="1" /><path clip-path="url(#clip760)" d="M1387.78 1481.64 L1395.42 1481.64 L1395.42 1455.28 L1387.11 1456.95 L1387.11 1452.69 L1395.37 1451.02 L1400.05 1451.02 L1400.05 1481.64 L1407.69 1481.64 L1407.69 1485.58 L1387.78 1485.58 L1387.78 1481.64 Z" fill="#000000" fill-rule="nonzero" fill-opacity="1" /><path clip-path="url(#clip760)" d="M1417.18 1451.02 L1435.53 1451.02 L1435.53 1454.96 L1421.46 1454.96 L1421.46 1463.43 Q1422.48 1463.08 1423.5 1462.92 Q1424.51 1462.73 1425.53 1462.73 Q1431.32 1462.73 1434.7 1465.9 Q1438.08 1469.08 1438.08 1474.49 Q1438.08 1480.07 1434.61 1483.17 Q1431.13 1486.25 1424.82 1486.25 Q1422.64 1486.25 1420.37 1485.88 Q1418.13 1485.51 1415.72 1484.77 L1415.72 1480.07 Q1417.8 1481.2 1420.02 1481.76 Q1422.25 1482.32 1424.72 1482.32 Q1428.73 1482.32 1431.07 1480.21 Q1433.4 1478.1 1433.4 1474.49 Q1433.4 1470.88 1431.07 1468.77 Q1428.73 1466.67 1424.72 1466.67 Q1422.85 1466.67 1420.97 1467.08 Q1419.12 1467.5 1417.18 1468.38 L1417.18 1451.02 Z" fill="#000000" fill-rule="nonzero" fill-opacity="1" /><path clip-path="url(#clip760)" d="M1791.44 1481.64 L1807.76 1481.64 L1807.76 1485.58 L1785.81 1485.58 L1785.81 1481.64 Q1788.47 1478.89 1793.06 1474.26 Q1797.66 1469.61 1798.84 1468.27 Q1801.09 1465.74 1801.97 1464.01 Q1802.87 1462.25 1802.87 1460.56 Q1802.87 1457.8 1800.93 1456.07 Q1799.01 1454.33 1795.9 1454.33 Q1793.7 1454.33 1791.25 1455.09 Q1788.82 1455.86 1786.04 1457.41 L1786.04 1452.69 Q1788.87 1451.55 1791.32 1450.97 Q1793.77 1450.39 1795.81 1450.39 Q1801.18 1450.39 1804.38 1453.08 Q1807.57 1455.77 1807.57 1460.26 Q1807.57 1462.39 1806.76 1464.31 Q1805.97 1466.2 1803.87 1468.8 Q1803.29 1469.47 1800.19 1472.69 Q1797.08 1475.88 1791.44 1481.64 Z" fill="#000000" fill-rule="nonzero" fill-opacity="1" /><path clip-path="url(#clip760)" d="M1827.57 1454.1 Q1823.96 1454.1 1822.13 1457.66 Q1820.32 1461.2 1820.32 1468.33 Q1820.32 1475.44 1822.13 1479.01 Q1823.96 1482.55 1827.57 1482.55 Q1831.2 1482.55 1833.01 1479.01 Q1834.84 1475.44 1834.84 1468.33 Q1834.84 1461.2 1833.01 1457.66 Q1831.2 1454.1 1827.57 1454.1 M1827.57 1450.39 Q1833.38 1450.39 1836.44 1455 Q1839.51 1459.58 1839.51 1468.33 Q1839.51 1477.06 1836.44 1481.67 Q1833.38 1486.25 1827.57 1486.25 Q1821.76 1486.25 1818.68 1481.67 Q1815.63 1477.06 1815.63 1468.33 Q1815.63 1459.58 1818.68 1455 Q1821.76 1450.39 1827.57 1450.39 Z" fill="#000000" fill-rule="nonzero" fill-opacity="1" /><path clip-path="url(#clip760)" d="M2192 1481.64 L2208.32 1481.64 L2208.32 1485.58 L2186.38 1485.58 L2186.38 1481.64 Q2189.04 1478.89 2193.62 1474.26 Q2198.23 1469.61 2199.41 1468.27 Q2201.66 1465.74 2202.53 1464.01 Q2203.44 1462.25 2203.44 1460.56 Q2203.44 1457.8 2201.49 1456.07 Q2199.57 1454.33 2196.47 1454.33 Q2194.27 1454.33 2191.82 1455.09 Q2189.39 1455.86 2186.61 1457.41 L2186.61 1452.69 Q2189.43 1451.55 2191.89 1450.97 Q2194.34 1450.39 2196.38 1450.39 Q2201.75 1450.39 2204.94 1453.08 Q2208.14 1455.77 2208.14 1460.26 Q2208.14 1462.39 2207.33 1464.31 Q2206.54 1466.2 2204.43 1468.8 Q2203.85 1469.47 2200.75 1472.69 Q2197.65 1475.88 2192 1481.64 Z" fill="#000000" fill-rule="nonzero" fill-opacity="1" /><path clip-path="url(#clip760)" d="M2218.18 1451.02 L2236.54 1451.02 L2236.54 1454.96 L2222.47 1454.96 L2222.47 1463.43 Q2223.48 1463.08 2224.5 1462.92 Q2225.52 1462.73 2226.54 1462.73 Q2232.33 1462.73 2235.71 1465.9 Q2239.09 1469.08 2239.09 1474.49 Q2239.09 1480.07 2235.61 1483.17 Q2232.14 1486.25 2225.82 1486.25 Q2223.65 1486.25 2221.38 1485.88 Q2219.13 1485.51 2216.72 1484.77 L2216.72 1480.07 Q2218.81 1481.2 2221.03 1481.76 Q2223.25 1482.32 2225.73 1482.32 Q2229.73 1482.32 2232.07 1480.21 Q2234.41 1478.1 2234.41 1474.49 Q2234.41 1470.88 2232.07 1468.77 Q2229.73 1466.67 2225.73 1466.67 Q2223.85 1466.67 2221.98 1467.08 Q2220.13 1467.5 2218.18 1468.38 L2218.18 1451.02 Z" fill="#000000" fill-rule="nonzero" fill-opacity="1" /><path clip-path="url(#clip760)" d="M1214.45 1520.52 L1254.65 1520.52 L1254.65 1525.93 L1237.78 1525.93 L1237.78 1568.04 L1231.32 1568.04 L1231.32 1525.93 L1214.45 1525.93 L1214.45 1520.52 Z" fill="#000000" fill-rule="nonzero" fill-opacity="1" /><path clip-path="url(#clip760)" d="M1258.6 1532.4 L1264.45 1532.4 L1264.45 1568.04 L1258.6 1568.04 L1258.6 1532.4 M1258.6 1518.52 L1264.45 1518.52 L1264.45 1525.93 L1258.6 1525.93 L1258.6 1518.52 Z" fill="#000000" fill-rule="nonzero" fill-opacity="1" /><path clip-path="url(#clip760)" d="M1304.46 1539.24 Q1306.66 1535.29 1309.71 1533.41 Q1312.77 1531.54 1316.91 1531.54 Q1322.48 1531.54 1325.5 1535.45 Q1328.52 1539.33 1328.52 1546.53 L1328.52 1568.04 L1322.63 1568.04 L1322.63 1546.72 Q1322.63 1541.59 1320.82 1539.11 Q1319.01 1536.63 1315.28 1536.63 Q1310.73 1536.63 1308.09 1539.65 Q1305.45 1542.68 1305.45 1547.9 L1305.45 1568.04 L1299.56 1568.04 L1299.56 1546.72 Q1299.56 1541.56 1297.74 1539.11 Q1295.93 1536.63 1292.14 1536.63 Q1287.66 1536.63 1285.01 1539.68 Q1282.37 1542.71 1282.37 1547.9 L1282.37 1568.04 L1276.48 1568.04 L1276.48 1532.4 L1282.37 1532.4 L1282.37 1537.93 Q1284.38 1534.66 1287.18 1533.1 Q1289.98 1531.54 1293.83 1531.54 Q1297.71 1531.54 1300.42 1533.51 Q1303.16 1535.48 1304.46 1539.24 Z" fill="#000000" fill-rule="nonzero" fill-opacity="1" /><path clip-path="url(#clip760)" d="M1370.7 1548.76 L1370.7 1551.62 L1343.77 1551.62 Q1344.15 1557.67 1347.4 1560.85 Q1350.68 1564 1356.5 1564 Q1359.87 1564 1363.03 1563.17 Q1366.21 1562.35 1369.33 1560.69 L1369.33 1566.23 Q1366.18 1567.57 1362.87 1568.27 Q1359.56 1568.97 1356.15 1568.97 Q1347.62 1568.97 1342.62 1564 Q1337.66 1559.04 1337.66 1550.57 Q1337.66 1541.82 1342.37 1536.69 Q1347.11 1531.54 1355.13 1531.54 Q1362.32 1531.54 1366.49 1536.18 Q1370.7 1540.8 1370.7 1548.76 M1364.84 1547.04 Q1364.78 1542.23 1362.13 1539.37 Q1359.52 1536.5 1355.2 1536.5 Q1350.29 1536.5 1347.33 1539.27 Q1344.41 1542.04 1343.96 1547.07 L1364.84 1547.04 Z" fill="#000000" fill-rule="nonzero" fill-opacity="1" /><polyline clip-path="url(#clip762)" style="stroke:#000000; stroke-linecap:round; stroke-linejoin:round; stroke-width:2; stroke-opacity:0.1; fill:none" points="232.389,1386.4 2352.76,1386.4 "/>
<polyline clip-path="url(#clip762)" style="stroke:#000000; stroke-linecap:round; stroke-linejoin:round; stroke-width:2; stroke-opacity:0.1; fill:none" points="232.389,1079.86 2352.76,1079.86 "/>
<polyline clip-path="url(#clip762)" style="stroke:#000000; stroke-linecap:round; stroke-linejoin:round; stroke-width:2; stroke-opacity:0.1; fill:none" points="232.389,773.326 2352.76,773.326 "/>
<polyline clip-path="url(#clip762)" style="stroke:#000000; stroke-linecap:round; stroke-linejoin:round; stroke-width:2; stroke-opacity:0.1; fill:none" points="232.389,466.791 2352.76,466.791 "/>
<polyline clip-path="url(#clip762)" style="stroke:#000000; stroke-linecap:round; stroke-linejoin:round; stroke-width:2; stroke-opacity:0.1; fill:none" points="232.389,160.256 2352.76,160.256 "/>
<polyline clip-path="url(#clip760)" style="stroke:#000000; stroke-linecap:round; stroke-linejoin:round; stroke-width:4; stroke-opacity:1; fill:none" points="232.389,1423.18 232.389,123.472 "/>
<polyline clip-path="url(#clip760)" style="stroke:#000000; stroke-linecap:round; stroke-linejoin:round; stroke-width:4; stroke-opacity:1; fill:none" points="232.389,1386.4 251.287,1386.4 "/>
<polyline clip-path="url(#clip760)" style="stroke:#000000; stroke-linecap:round; stroke-linejoin:round; stroke-width:4; stroke-opacity:1; fill:none" points="232.389,1079.86 251.287,1079.86 "/>
<polyline clip-path="url(#clip760)" style="stroke:#000000; stroke-linecap:round; stroke-linejoin:round; stroke-width:4; stroke-opacity:1; fill:none" points="232.389,773.326 251.287,773.326 "/>
<polyline clip-path="url(#clip760)" style="stroke:#000000; stroke-linecap:round; stroke-linejoin:round; stroke-width:4; stroke-opacity:1; fill:none" points="232.389,466.791 251.287,466.791 "/>
<polyline clip-path="url(#clip760)" style="stroke:#000000; stroke-linecap:round; stroke-linejoin:round; stroke-width:4; stroke-opacity:1; fill:none" points="232.389,160.256 251.287,160.256 "/>
<path clip-path="url(#clip760)" d="M154.283 1387.26 Q150.95 1387.26 149.028 1389.05 Q147.13 1390.83 147.13 1393.95 Q147.13 1397.08 149.028 1398.86 Q150.95 1400.64 154.283 1400.64 Q157.616 1400.64 159.538 1398.86 Q161.459 1397.06 161.459 1393.95 Q161.459 1390.83 159.538 1389.05 Q157.64 1387.26 154.283 1387.26 M149.607 1385.27 Q146.598 1384.53 144.908 1382.47 Q143.241 1380.41 143.241 1377.45 Q143.241 1373.31 146.181 1370.9 Q149.144 1368.49 154.283 1368.49 Q159.445 1368.49 162.385 1370.9 Q165.325 1373.31 165.325 1377.45 Q165.325 1380.41 163.635 1382.47 Q161.968 1384.53 158.982 1385.27 Q162.362 1386.06 164.237 1388.35 Q166.135 1390.64 166.135 1393.95 Q166.135 1398.98 163.056 1401.66 Q160.001 1404.35 154.283 1404.35 Q148.566 1404.35 145.487 1401.66 Q142.431 1398.98 142.431 1393.95 Q142.431 1390.64 144.329 1388.35 Q146.228 1386.06 149.607 1385.27 M147.894 1377.89 Q147.894 1380.57 149.561 1382.08 Q151.251 1383.58 154.283 1383.58 Q157.292 1383.58 158.982 1382.08 Q160.695 1380.57 160.695 1377.89 Q160.695 1375.2 158.982 1373.7 Q157.292 1372.19 154.283 1372.19 Q151.251 1372.19 149.561 1373.7 Q147.894 1375.2 147.894 1377.89 Z" fill="#000000" fill-rule="nonzero" fill-opacity="1" /><path clip-path="url(#clip760)" d="M184.445 1372.19 Q180.834 1372.19 179.005 1375.76 Q177.2 1379.3 177.2 1386.43 Q177.2 1393.54 179.005 1397.1 Q180.834 1400.64 184.445 1400.64 Q188.079 1400.64 189.885 1397.1 Q191.713 1393.54 191.713 1386.43 Q191.713 1379.3 189.885 1375.76 Q188.079 1372.19 184.445 1372.19 M184.445 1368.49 Q190.255 1368.49 193.311 1373.1 Q196.389 1377.68 196.389 1386.43 Q196.389 1395.16 193.311 1399.76 Q190.255 1404.35 184.445 1404.35 Q178.635 1404.35 175.556 1399.76 Q172.501 1395.16 172.501 1386.43 Q172.501 1377.68 175.556 1373.1 Q178.635 1368.49 184.445 1368.49 Z" fill="#000000" fill-rule="nonzero" fill-opacity="1" /><path clip-path="url(#clip760)" d="M144.422 1096.42 L144.422 1092.16 Q146.181 1093 147.987 1093.44 Q149.792 1093.88 151.528 1093.88 Q156.158 1093.88 158.589 1090.78 Q161.042 1087.65 161.39 1081.31 Q160.047 1083.3 157.987 1084.36 Q155.927 1085.43 153.427 1085.43 Q148.241 1085.43 145.209 1082.3 Q142.2 1079.15 142.2 1073.72 Q142.2 1068.39 145.348 1065.17 Q148.496 1061.96 153.728 1061.96 Q159.723 1061.96 162.871 1066.56 Q166.042 1071.15 166.042 1079.9 Q166.042 1088.07 162.153 1092.95 Q158.288 1097.81 151.737 1097.81 Q149.978 1097.81 148.172 1097.46 Q146.366 1097.12 144.422 1096.42 M153.728 1081.77 Q156.876 1081.77 158.704 1079.62 Q160.556 1077.47 160.556 1073.72 Q160.556 1069.99 158.704 1067.84 Q156.876 1065.66 153.728 1065.66 Q150.579 1065.66 148.728 1067.84 Q146.899 1069.99 146.899 1073.72 Q146.899 1077.47 148.728 1079.62 Q150.579 1081.77 153.728 1081.77 Z" fill="#000000" fill-rule="nonzero" fill-opacity="1" /><path clip-path="url(#clip760)" d="M184.445 1065.66 Q180.834 1065.66 179.005 1069.22 Q177.2 1072.77 177.2 1079.9 Q177.2 1087 179.005 1090.57 Q180.834 1094.11 184.445 1094.11 Q188.079 1094.11 189.885 1090.57 Q191.713 1087 191.713 1079.9 Q191.713 1072.77 189.885 1069.22 Q188.079 1065.66 184.445 1065.66 M184.445 1061.96 Q190.255 1061.96 193.311 1066.56 Q196.389 1071.15 196.389 1079.9 Q196.389 1088.62 193.311 1093.23 Q190.255 1097.81 184.445 1097.81 Q178.635 1097.81 175.556 1093.23 Q172.501 1088.62 172.501 1079.9 Q172.501 1071.15 175.556 1066.56 Q178.635 1061.96 184.445 1061.96 Z" fill="#000000" fill-rule="nonzero" fill-opacity="1" /><path clip-path="url(#clip760)" d="M114.931 786.671 L122.57 786.671 L122.57 760.305 L114.26 761.972 L114.26 757.713 L122.524 756.046 L127.2 756.046 L127.2 786.671 L134.839 786.671 L134.839 790.606 L114.931 790.606 L114.931 786.671 Z" fill="#000000" fill-rule="nonzero" fill-opacity="1" /><path clip-path="url(#clip760)" d="M154.283 759.125 Q150.672 759.125 148.843 762.689 Q147.038 766.231 147.038 773.361 Q147.038 780.467 148.843 784.032 Q150.672 787.574 154.283 787.574 Q157.917 787.574 159.723 784.032 Q161.552 780.467 161.552 773.361 Q161.552 766.231 159.723 762.689 Q157.917 759.125 154.283 759.125 M154.283 755.421 Q160.093 755.421 163.149 760.027 Q166.227 764.611 166.227 773.361 Q166.227 782.088 163.149 786.694 Q160.093 791.277 154.283 791.277 Q148.473 791.277 145.394 786.694 Q142.339 782.088 142.339 773.361 Q142.339 764.611 145.394 760.027 Q148.473 755.421 154.283 755.421 Z" fill="#000000" fill-rule="nonzero" fill-opacity="1" /><path clip-path="url(#clip760)" d="M184.445 759.125 Q180.834 759.125 179.005 762.689 Q177.2 766.231 177.2 773.361 Q177.2 780.467 179.005 784.032 Q180.834 787.574 184.445 787.574 Q188.079 787.574 189.885 784.032 Q191.713 780.467 191.713 773.361 Q191.713 766.231 189.885 762.689 Q188.079 759.125 184.445 759.125 M184.445 755.421 Q190.255 755.421 193.311 760.027 Q196.389 764.611 196.389 773.361 Q196.389 782.088 193.311 786.694 Q190.255 791.277 184.445 791.277 Q178.635 791.277 175.556 786.694 Q172.501 782.088 172.501 773.361 Q172.501 764.611 175.556 760.027 Q178.635 755.421 184.445 755.421 Z" fill="#000000" fill-rule="nonzero" fill-opacity="1" /><path clip-path="url(#clip760)" d="M114.931 480.136 L122.57 480.136 L122.57 453.77 L114.26 455.437 L114.26 451.178 L122.524 449.511 L127.2 449.511 L127.2 480.136 L134.839 480.136 L134.839 484.071 L114.931 484.071 L114.931 480.136 Z" fill="#000000" fill-rule="nonzero" fill-opacity="1" /><path clip-path="url(#clip760)" d="M145.093 480.136 L152.732 480.136 L152.732 453.77 L144.422 455.437 L144.422 451.178 L152.686 449.511 L157.362 449.511 L157.362 480.136 L165.001 480.136 L165.001 484.071 L145.093 484.071 L145.093 480.136 Z" fill="#000000" fill-rule="nonzero" fill-opacity="1" /><path clip-path="url(#clip760)" d="M184.445 452.59 Q180.834 452.59 179.005 456.155 Q177.2 459.696 177.2 466.826 Q177.2 473.932 179.005 477.497 Q180.834 481.039 184.445 481.039 Q188.079 481.039 189.885 477.497 Q191.713 473.932 191.713 466.826 Q191.713 459.696 189.885 456.155 Q188.079 452.59 184.445 452.59 M184.445 448.886 Q190.255 448.886 193.311 453.493 Q196.389 458.076 196.389 466.826 Q196.389 475.553 193.311 480.159 Q190.255 484.742 184.445 484.742 Q178.635 484.742 175.556 480.159 Q172.501 475.553 172.501 466.826 Q172.501 458.076 175.556 453.493 Q178.635 448.886 184.445 448.886 Z" fill="#000000" fill-rule="nonzero" fill-opacity="1" /><path clip-path="url(#clip760)" d="M114.931 173.601 L122.57 173.601 L122.57 147.236 L114.26 148.902 L114.26 144.643 L122.524 142.976 L127.2 142.976 L127.2 173.601 L134.839 173.601 L134.839 177.536 L114.931 177.536 L114.931 173.601 Z" fill="#000000" fill-rule="nonzero" fill-opacity="1" /><path clip-path="url(#clip760)" d="M148.311 173.601 L164.63 173.601 L164.63 177.536 L142.686 177.536 L142.686 173.601 Q145.348 170.847 149.931 166.217 Q154.538 161.564 155.718 160.222 Q157.964 157.698 158.843 155.962 Q159.746 154.203 159.746 152.513 Q159.746 149.759 157.802 148.023 Q155.88 146.286 152.778 146.286 Q150.579 146.286 148.126 147.05 Q145.695 147.814 142.917 149.365 L142.917 144.643 Q145.741 143.509 148.195 142.93 Q150.649 142.351 152.686 142.351 Q158.056 142.351 161.251 145.036 Q164.445 147.722 164.445 152.212 Q164.445 154.342 163.635 156.263 Q162.848 158.161 160.741 160.754 Q160.163 161.425 157.061 164.643 Q153.959 167.837 148.311 173.601 Z" fill="#000000" fill-rule="nonzero" fill-opacity="1" /><path clip-path="url(#clip760)" d="M184.445 146.055 Q180.834 146.055 179.005 149.62 Q177.2 153.161 177.2 160.291 Q177.2 167.397 179.005 170.962 Q180.834 174.504 184.445 174.504 Q188.079 174.504 189.885 170.962 Q191.713 167.397 191.713 160.291 Q191.713 153.161 189.885 149.62 Q188.079 146.055 184.445 146.055 M184.445 142.351 Q190.255 142.351 193.311 146.958 Q196.389 151.541 196.389 160.291 Q196.389 169.018 193.311 173.624 Q190.255 178.208 184.445 178.208 Q178.635 178.208 175.556 173.624 Q172.501 169.018 172.501 160.291 Q172.501 151.541 175.556 146.958 Q178.635 142.351 184.445 142.351 Z" fill="#000000" fill-rule="nonzero" fill-opacity="1" /><path clip-path="url(#clip760)" d="M21.7677 841.471 L39.6235 841.471 L39.6235 833.386 Q39.6235 828.899 37.3 826.448 Q34.9765 823.997 30.6797 823.997 Q26.4147 823.997 24.0912 826.448 Q21.7677 828.899 21.7677 833.386 L21.7677 841.471 M16.4842 847.9 L16.4842 833.386 Q16.4842 825.397 20.1126 821.323 Q23.7092 817.218 30.6797 817.218 Q37.7138 817.218 41.3104 821.323 Q44.907 825.397 44.907 833.386 L44.907 841.471 L64.0042 841.471 L64.0042 847.9 L16.4842 847.9 Z" fill="#000000" fill-rule="nonzero" fill-opacity="1" /><path clip-path="url(#clip760)" d="M33.8307 789.336 Q33.2578 790.322 33.0032 791.5 Q32.7167 792.646 32.7167 794.046 Q32.7167 799.012 35.9632 801.685 Q39.1779 804.327 45.2253 804.327 L64.0042 804.327 L64.0042 810.215 L28.3562 810.215 L28.3562 804.327 L33.8944 804.327 Q30.6479 802.481 29.0883 799.521 Q27.4968 796.561 27.4968 792.328 Q27.4968 791.723 27.5923 790.991 Q27.656 790.259 27.8151 789.368 L33.8307 789.336 Z" fill="#000000" fill-rule="nonzero" fill-opacity="1" /><path clip-path="url(#clip760)" d="M28.3562 783.193 L28.3562 777.336 L64.0042 777.336 L64.0042 783.193 L28.3562 783.193 M14.479 783.193 L14.479 777.336 L21.895 777.336 L21.895 783.193 L14.479 783.193 Z" fill="#000000" fill-rule="nonzero" fill-opacity="1" /><path clip-path="url(#clip760)" d="M29.7248 739.429 L35.1993 739.429 Q33.8307 741.911 33.1623 744.426 Q32.4621 746.908 32.4621 749.455 Q32.4621 755.152 36.0905 758.303 Q39.6872 761.454 46.212 761.454 Q52.7369 761.454 56.3653 758.303 Q59.9619 755.152 59.9619 749.455 Q59.9619 746.908 59.2935 744.426 Q58.5933 741.911 57.2247 739.429 L62.6355 739.429 Q63.7814 741.879 64.3543 744.521 Q64.9272 747.131 64.9272 750.091 Q64.9272 758.144 59.8664 762.886 Q54.8057 767.629 46.212 767.629 Q37.491 767.629 32.4939 762.854 Q27.4968 758.048 27.4968 749.709 Q27.4968 747.004 28.0697 744.426 Q28.6108 741.848 29.7248 739.429 Z" fill="#000000" fill-rule="nonzero" fill-opacity="1" /><path clip-path="url(#clip760)" d="M44.7161 698.752 L47.5806 698.752 L47.5806 725.679 Q53.6281 725.297 56.8109 722.05 Q59.9619 718.772 59.9619 712.947 Q59.9619 709.573 59.1344 706.422 Q58.3069 703.24 56.6518 700.12 L62.1899 700.12 Q63.5267 703.271 64.227 706.582 Q64.9272 709.892 64.9272 713.297 Q64.9272 721.827 59.9619 726.824 Q54.9967 731.79 46.5303 731.79 Q37.7774 731.79 32.6531 727.079 Q27.4968 722.337 27.4968 714.316 Q27.4968 707.123 32.1438 702.953 Q36.7589 698.752 44.7161 698.752 M42.9973 704.608 Q38.1912 704.672 35.3266 707.314 Q32.4621 709.924 32.4621 714.252 Q32.4621 719.154 35.2312 722.114 Q38.0002 725.042 43.0292 725.488 L42.9973 704.608 Z" fill="#000000" fill-rule="nonzero" fill-opacity="1" /><path clip-path="url(#clip760)" d="M773.571 12.096 L785.764 12.096 L801.198 53.2532 L816.713 12.096 L828.906 12.096 L828.906 72.576 L820.926 72.576 L820.926 19.4686 L805.33 60.9499 L797.107 60.9499 L781.511 19.4686 L781.511 72.576 L773.571 72.576 L773.571 12.096 Z" fill="#000000" fill-rule="nonzero" fill-opacity="1" /><path clip-path="url(#clip760)" d="M862.407 32.4315 Q856.412 32.4315 852.928 37.1306 Q849.444 41.7891 849.444 49.9314 Q849.444 58.0738 852.887 62.7728 Q856.371 67.4314 862.407 67.4314 Q868.362 67.4314 871.846 62.7323 Q875.329 58.0333 875.329 49.9314 Q875.329 41.8701 871.846 37.1711 Q868.362 32.4315 862.407 32.4315 M862.407 26.1121 Q872.129 26.1121 877.679 32.4315 Q883.229 38.7509 883.229 49.9314 Q883.229 61.0714 877.679 67.4314 Q872.129 73.7508 862.407 73.7508 Q852.644 73.7508 847.095 67.4314 Q841.585 61.0714 841.585 49.9314 Q841.585 38.7509 847.095 32.4315 Q852.644 26.1121 862.407 26.1121 Z" fill="#000000" fill-rule="nonzero" fill-opacity="1" /><path clip-path="url(#clip760)" d="M890.237 27.2059 L898.136 27.2059 L912.314 65.2844 L926.492 27.2059 L934.392 27.2059 L917.378 72.576 L907.251 72.576 L890.237 27.2059 Z" fill="#000000" fill-rule="nonzero" fill-opacity="1" /><path clip-path="url(#clip760)" d="M944.681 27.2059 L952.135 27.2059 L952.135 72.576 L944.681 72.576 L944.681 27.2059 M944.681 9.54393 L952.135 9.54393 L952.135 18.9825 L944.681 18.9825 L944.681 9.54393 Z" fill="#000000" fill-rule="nonzero" fill-opacity="1" /><path clip-path="url(#clip760)" d="M1005.44 45.1919 L1005.44 72.576 L997.991 72.576 L997.991 45.4349 Q997.991 38.994 995.479 35.7938 Q992.968 32.5936 987.945 32.5936 Q981.909 32.5936 978.425 36.4419 Q974.941 40.2903 974.941 46.9338 L974.941 72.576 L967.447 72.576 L967.447 27.2059 L974.941 27.2059 L974.941 34.2544 Q977.615 30.163 981.22 28.1376 Q984.866 26.1121 989.605 26.1121 Q997.424 26.1121 1001.43 30.9732 Q1005.44 35.7938 1005.44 45.1919 Z" fill="#000000" fill-rule="nonzero" fill-opacity="1" /><path clip-path="url(#clip760)" d="M1050.17 49.3643 Q1050.17 41.2625 1046.8 36.8065 Q1043.48 32.3505 1037.45 32.3505 Q1031.45 32.3505 1028.09 36.8065 Q1024.77 41.2625 1024.77 49.3643 Q1024.77 57.4256 1028.09 61.8816 Q1031.45 66.3376 1037.45 66.3376 Q1043.48 66.3376 1046.8 61.8816 Q1050.17 57.4256 1050.17 49.3643 M1057.62 66.9452 Q1057.62 78.5308 1052.48 84.1616 Q1047.33 89.8329 1036.72 89.8329 Q1032.79 89.8329 1029.3 89.2252 Q1025.82 88.6581 1022.54 87.4428 L1022.54 80.1917 Q1025.82 81.9741 1029.02 82.8248 Q1032.22 83.6755 1035.54 83.6755 Q1042.87 83.6755 1046.52 79.8271 Q1050.17 76.0193 1050.17 68.282 L1050.17 64.5957 Q1047.86 68.6061 1044.25 70.5911 Q1040.65 72.576 1035.62 72.576 Q1027.28 72.576 1022.17 66.2161 Q1017.07 59.8562 1017.07 49.3643 Q1017.07 38.832 1022.17 32.472 Q1027.28 26.1121 1035.62 26.1121 Q1040.65 26.1121 1044.25 28.0971 Q1047.86 30.082 1050.17 34.0924 L1050.17 27.2059 L1057.62 27.2059 L1057.62 66.9452 Z" fill="#000000" fill-rule="nonzero" fill-opacity="1" /><path clip-path="url(#clip760)" d="M1119.88 20.1573 L1108.78 50.2555 L1131.02 50.2555 L1119.88 20.1573 M1115.26 12.096 L1124.54 12.096 L1147.59 72.576 L1139.08 72.576 L1133.57 57.061 L1106.31 57.061 L1100.8 72.576 L1092.17 72.576 L1115.26 12.096 Z" fill="#000000" fill-rule="nonzero" fill-opacity="1" /><path clip-path="url(#clip760)" d="M1145.89 27.2059 L1153.79 27.2059 L1167.97 65.2844 L1182.14 27.2059 L1190.04 27.2059 L1173.03 72.576 L1162.9 72.576 L1145.89 27.2059 Z" fill="#000000" fill-rule="nonzero" fill-opacity="1" /><path clip-path="url(#clip760)" d="M1239.14 48.0275 L1239.14 51.6733 L1204.87 51.6733 Q1205.36 59.3701 1209.49 63.421 Q1213.66 67.4314 1221.07 67.4314 Q1225.37 67.4314 1229.38 66.3781 Q1233.43 65.3249 1237.4 63.2184 L1237.4 70.267 Q1233.39 71.9684 1229.18 72.8596 Q1224.96 73.7508 1220.63 73.7508 Q1209.77 73.7508 1203.41 67.4314 Q1197.09 61.1119 1197.09 50.3365 Q1197.09 39.1965 1203.09 32.6746 Q1209.12 26.1121 1219.33 26.1121 Q1228.49 26.1121 1233.79 32.0264 Q1239.14 37.9003 1239.14 48.0275 M1231.69 45.84 Q1231.61 39.7232 1228.24 36.0774 Q1224.92 32.4315 1219.41 32.4315 Q1213.17 32.4315 1209.41 35.9558 Q1205.68 39.4801 1205.11 45.8805 L1231.69 45.84 Z" fill="#000000" fill-rule="nonzero" fill-opacity="1" /><path clip-path="url(#clip760)" d="M1277.67 34.1734 Q1276.41 33.4443 1274.91 33.1202 Q1273.45 32.7556 1271.67 32.7556 Q1265.35 32.7556 1261.95 36.8875 Q1258.59 40.9789 1258.59 48.6757 L1258.59 72.576 L1251.09 72.576 L1251.09 27.2059 L1258.59 27.2059 L1258.59 34.2544 Q1260.94 30.1225 1264.7 28.1376 Q1268.47 26.1121 1273.86 26.1121 Q1274.63 26.1121 1275.56 26.2337 Q1276.49 26.3147 1277.62 26.5172 L1277.67 34.1734 Z" fill="#000000" fill-rule="nonzero" fill-opacity="1" /><path clip-path="url(#clip760)" d="M1306.1 49.7694 Q1297.07 49.7694 1293.59 51.8354 Q1290.1 53.9013 1290.1 58.8839 Q1290.1 62.8538 1292.69 65.2034 Q1295.33 67.5124 1299.82 67.5124 Q1306.02 67.5124 1309.75 63.1374 Q1313.52 58.7219 1313.52 51.4303 L1313.52 49.7694 L1306.1 49.7694 M1320.97 46.6907 L1320.97 72.576 L1313.52 72.576 L1313.52 65.6895 Q1310.96 69.8214 1307.16 71.8063 Q1303.35 73.7508 1297.84 73.7508 Q1290.87 73.7508 1286.74 69.8619 Q1282.65 65.9325 1282.65 59.3701 Q1282.65 51.7138 1287.75 47.825 Q1292.9 43.9361 1303.06 43.9361 L1313.52 43.9361 L1313.52 43.2069 Q1313.52 38.0623 1310.11 35.2672 Q1306.75 32.4315 1300.63 32.4315 Q1296.75 32.4315 1293.06 33.3632 Q1289.37 34.295 1285.97 36.1584 L1285.97 29.2718 Q1290.06 27.692 1293.91 26.9223 Q1297.76 26.1121 1301.4 26.1121 Q1311.25 26.1121 1316.11 31.2163 Q1320.97 36.3204 1320.97 46.6907 Z" fill="#000000" fill-rule="nonzero" fill-opacity="1" /><path clip-path="url(#clip760)" d="M1366.18 49.3643 Q1366.18 41.2625 1362.82 36.8065 Q1359.49 32.3505 1353.46 32.3505 Q1347.46 32.3505 1344.1 36.8065 Q1340.78 41.2625 1340.78 49.3643 Q1340.78 57.4256 1344.1 61.8816 Q1347.46 66.3376 1353.46 66.3376 Q1359.49 66.3376 1362.82 61.8816 Q1366.18 57.4256 1366.18 49.3643 M1373.63 66.9452 Q1373.63 78.5308 1368.49 84.1616 Q1363.34 89.8329 1352.73 89.8329 Q1348.8 89.8329 1345.32 89.2252 Q1341.83 88.6581 1338.55 87.4428 L1338.55 80.1917 Q1341.83 81.9741 1345.03 82.8248 Q1348.23 83.6755 1351.55 83.6755 Q1358.89 83.6755 1362.53 79.8271 Q1366.18 76.0193 1366.18 68.282 L1366.18 64.5957 Q1363.87 68.6061 1360.26 70.5911 Q1356.66 72.576 1351.63 72.576 Q1343.29 72.576 1338.19 66.2161 Q1333.08 59.8562 1333.08 49.3643 Q1333.08 38.832 1338.19 32.472 Q1343.29 26.1121 1351.63 26.1121 Q1356.66 26.1121 1360.26 28.0971 Q1363.87 30.082 1366.18 34.0924 L1366.18 27.2059 L1373.63 27.2059 L1373.63 66.9452 Z" fill="#000000" fill-rule="nonzero" fill-opacity="1" /><path clip-path="url(#clip760)" d="M1427.79 48.0275 L1427.79 51.6733 L1393.52 51.6733 Q1394.01 59.3701 1398.14 63.421 Q1402.31 67.4314 1409.72 67.4314 Q1414.02 67.4314 1418.03 66.3781 Q1422.08 65.3249 1426.05 63.2184 L1426.05 70.267 Q1422.04 71.9684 1417.83 72.8596 Q1413.61 73.7508 1409.28 73.7508 Q1398.42 73.7508 1392.06 67.4314 Q1385.74 61.1119 1385.74 50.3365 Q1385.74 39.1965 1391.74 32.6746 Q1397.77 26.1121 1407.98 26.1121 Q1417.14 26.1121 1422.44 32.0264 Q1427.79 37.9003 1427.79 48.0275 M1420.34 45.84 Q1420.26 39.7232 1416.89 36.0774 Q1413.57 32.4315 1408.06 32.4315 Q1401.83 32.4315 1398.06 35.9558 Q1394.33 39.4801 1393.76 45.8805 L1420.34 45.84 Z" fill="#000000" fill-rule="nonzero" fill-opacity="1" /><path clip-path="url(#clip760)" d="M1502.98 14.0809 L1502.98 22.0612 Q1498.32 19.8332 1494.19 18.7395 Q1490.05 17.6457 1486.21 17.6457 Q1479.52 17.6457 1475.88 20.2383 Q1472.27 22.8309 1472.27 27.611 Q1472.27 31.6214 1474.66 33.6873 Q1477.09 35.7128 1483.82 36.9686 L1488.76 37.9813 Q1497.91 39.7232 1502.25 44.1387 Q1506.62 48.5136 1506.62 55.8863 Q1506.62 64.6767 1500.71 69.2137 Q1494.83 73.7508 1483.45 73.7508 Q1479.16 73.7508 1474.3 72.7785 Q1469.48 71.8063 1464.29 69.9024 L1464.29 61.4765 Q1469.27 64.2716 1474.05 65.6895 Q1478.83 67.1073 1483.45 67.1073 Q1490.46 67.1073 1494.27 64.3527 Q1498.07 61.598 1498.07 56.4939 Q1498.07 52.0379 1495.32 49.5264 Q1492.61 47.0148 1486.37 45.759 L1481.39 44.7868 Q1472.23 42.9639 1468.14 39.075 Q1464.05 35.1862 1464.05 28.2591 Q1464.05 20.2383 1469.68 15.6203 Q1475.35 11.0023 1485.27 11.0023 Q1489.53 11.0023 1493.94 11.7719 Q1498.36 12.5416 1502.98 14.0809 Z" fill="#000000" fill-rule="nonzero" fill-opacity="1" /><path clip-path="url(#clip760)" d="M1526.43 14.324 L1526.43 27.2059 L1541.78 27.2059 L1541.78 32.9987 L1526.43 32.9987 L1526.43 57.6282 Q1526.43 63.1779 1527.93 64.7578 Q1529.47 66.3376 1534.13 66.3376 L1541.78 66.3376 L1541.78 72.576 L1534.13 72.576 Q1525.5 72.576 1522.22 69.3758 Q1518.94 66.1351 1518.94 57.6282 L1518.94 32.9987 L1513.47 32.9987 L1513.47 27.2059 L1518.94 27.2059 L1518.94 14.324 L1526.43 14.324 Z" fill="#000000" fill-rule="nonzero" fill-opacity="1" /><path clip-path="url(#clip760)" d="M1577.88 34.1734 Q1576.62 33.4443 1575.12 33.1202 Q1573.66 32.7556 1571.88 32.7556 Q1565.56 32.7556 1562.16 36.8875 Q1558.8 40.9789 1558.8 48.6757 L1558.8 72.576 L1551.3 72.576 L1551.3 27.2059 L1558.8 27.2059 L1558.8 34.2544 Q1561.15 30.1225 1564.91 28.1376 Q1568.68 26.1121 1574.07 26.1121 Q1574.84 26.1121 1575.77 26.2337 Q1576.7 26.3147 1577.84 26.5172 L1577.88 34.1734 Z" fill="#000000" fill-rule="nonzero" fill-opacity="1" /><path clip-path="url(#clip760)" d="M1606.32 49.7694 Q1597.28 49.7694 1593.8 51.8354 Q1590.31 53.9013 1590.31 58.8839 Q1590.31 62.8538 1592.91 65.2034 Q1595.54 67.5124 1600.04 67.5124 Q1606.23 67.5124 1609.96 63.1374 Q1613.73 58.7219 1613.73 51.4303 L1613.73 49.7694 L1606.32 49.7694 M1621.18 46.6907 L1621.18 72.576 L1613.73 72.576 L1613.73 65.6895 Q1611.18 69.8214 1607.37 71.8063 Q1603.56 73.7508 1598.05 73.7508 Q1591.08 73.7508 1586.95 69.8619 Q1582.86 65.9325 1582.86 59.3701 Q1582.86 51.7138 1587.96 47.825 Q1593.11 43.9361 1603.28 43.9361 L1613.73 43.9361 L1613.73 43.2069 Q1613.73 38.0623 1610.33 35.2672 Q1606.96 32.4315 1600.85 32.4315 Q1596.96 32.4315 1593.27 33.3632 Q1589.58 34.295 1586.18 36.1584 L1586.18 29.2718 Q1590.27 27.692 1594.12 26.9223 Q1597.97 26.1121 1601.62 26.1121 Q1611.46 26.1121 1616.32 31.2163 Q1621.18 36.3204 1621.18 46.6907 Z" fill="#000000" fill-rule="nonzero" fill-opacity="1" /><path clip-path="url(#clip760)" d="M1643.91 14.324 L1643.91 27.2059 L1659.26 27.2059 L1659.26 32.9987 L1643.91 32.9987 L1643.91 57.6282 Q1643.91 63.1779 1645.41 64.7578 Q1646.95 66.3376 1651.6 66.3376 L1659.26 66.3376 L1659.26 72.576 L1651.6 72.576 Q1642.98 72.576 1639.69 69.3758 Q1636.41 66.1351 1636.41 57.6282 L1636.41 32.9987 L1630.94 32.9987 L1630.94 27.2059 L1636.41 27.2059 L1636.41 14.324 L1643.91 14.324 Z" fill="#000000" fill-rule="nonzero" fill-opacity="1" /><path clip-path="url(#clip760)" d="M1707.87 48.0275 L1707.87 51.6733 L1673.6 51.6733 Q1674.09 59.3701 1678.22 63.421 Q1682.39 67.4314 1689.8 67.4314 Q1694.1 67.4314 1698.11 66.3781 Q1702.16 65.3249 1706.13 63.2184 L1706.13 70.267 Q1702.12 71.9684 1697.91 72.8596 Q1693.69 73.7508 1689.36 73.7508 Q1678.5 73.7508 1672.14 67.4314 Q1665.82 61.1119 1665.82 50.3365 Q1665.82 39.1965 1671.82 32.6746 Q1677.85 26.1121 1688.06 26.1121 Q1697.22 26.1121 1702.52 32.0264 Q1707.87 37.9003 1707.87 48.0275 M1700.42 45.84 Q1700.34 39.7232 1696.97 36.0774 Q1693.65 32.4315 1688.14 32.4315 Q1681.91 32.4315 1678.14 35.9558 Q1674.41 39.4801 1673.84 45.8805 L1700.42 45.84 Z" fill="#000000" fill-rule="nonzero" fill-opacity="1" /><path clip-path="url(#clip760)" d="M1749.96 49.3643 Q1749.96 41.2625 1746.6 36.8065 Q1743.28 32.3505 1737.24 32.3505 Q1731.25 32.3505 1727.88 36.8065 Q1724.56 41.2625 1724.56 49.3643 Q1724.56 57.4256 1727.88 61.8816 Q1731.25 66.3376 1737.24 66.3376 Q1743.28 66.3376 1746.6 61.8816 Q1749.96 57.4256 1749.96 49.3643 M1757.41 66.9452 Q1757.41 78.5308 1752.27 84.1616 Q1747.12 89.8329 1736.51 89.8329 Q1732.58 89.8329 1729.1 89.2252 Q1725.61 88.6581 1722.33 87.4428 L1722.33 80.1917 Q1725.61 81.9741 1728.81 82.8248 Q1732.01 83.6755 1735.34 83.6755 Q1742.67 83.6755 1746.31 79.8271 Q1749.96 76.0193 1749.96 68.282 L1749.96 64.5957 Q1747.65 68.6061 1744.05 70.5911 Q1740.44 72.576 1735.42 72.576 Q1727.07 72.576 1721.97 66.2161 Q1716.86 59.8562 1716.86 49.3643 Q1716.86 38.832 1721.97 32.472 Q1727.07 26.1121 1735.42 26.1121 Q1740.44 26.1121 1744.05 28.0971 Q1747.65 30.082 1749.96 34.0924 L1749.96 27.2059 L1757.41 27.2059 L1757.41 66.9452 Z" fill="#000000" fill-rule="nonzero" fill-opacity="1" /><path clip-path="url(#clip760)" d="M1791.64 76.7889 Q1788.48 84.8907 1785.49 87.3618 Q1782.49 89.8329 1777.47 89.8329 L1771.51 89.8329 L1771.51 83.5945 L1775.89 83.5945 Q1778.96 83.5945 1780.67 82.1361 Q1782.37 80.6778 1784.43 75.2496 L1785.77 71.8468 L1767.42 27.2059 L1775.32 27.2059 L1789.5 62.6918 L1803.68 27.2059 L1811.57 27.2059 L1791.64 76.7889 Z" fill="#000000" fill-rule="nonzero" fill-opacity="1" /><polyline clip-path="url(#clip762)" style="stroke:#009af9; stroke-linecap:round; stroke-linejoin:round; stroke-width:4; stroke-opacity:1; fill:none" points="292.4,773.326 372.414,620.059 452.427,466.791 532.441,313.524 612.455,160.256 692.469,313.524 772.483,466.791 852.497,620.059 932.51,773.326 1012.52,926.593 1092.54,1079.86 1172.55,1233.13 1252.57,1386.4 1332.58,1386.4 1412.59,1233.13 1492.61,1079.86 1572.62,926.593 1652.63,773.326 1732.65,620.059 1812.66,466.791 1892.68,313.524 1972.69,160.256 2052.7,313.524 2132.72,466.791 2212.73,620.059 2292.75,773.326 "/>
<circle clip-path="url(#clip762)" cx="292.4" cy="773.326" r="14.4" fill="#009af9" fill-rule="evenodd" fill-opacity="1" stroke="#000000" stroke-opacity="1" stroke-width="3.2"/>
<circle clip-path="url(#clip762)" cx="372.414" cy="620.059" r="14.4" fill="#009af9" fill-rule="evenodd" fill-opacity="1" stroke="#000000" stroke-opacity="1" stroke-width="3.2"/>
<circle clip-path="url(#clip762)" cx="452.427" cy="466.791" r="14.4" fill="#009af9" fill-rule="evenodd" fill-opacity="1" stroke="#000000" stroke-opacity="1" stroke-width="3.2"/>
<circle clip-path="url(#clip762)" cx="532.441" cy="313.524" r="14.4" fill="#009af9" fill-rule="evenodd" fill-opacity="1" stroke="#000000" stroke-opacity="1" stroke-width="3.2"/>
<circle clip-path="url(#clip762)" cx="612.455" cy="160.256" r="14.4" fill="#009af9" fill-rule="evenodd" fill-opacity="1" stroke="#000000" stroke-opacity="1" stroke-width="3.2"/>
<circle clip-path="url(#clip762)" cx="692.469" cy="313.524" r="14.4" fill="#009af9" fill-rule="evenodd" fill-opacity="1" stroke="#000000" stroke-opacity="1" stroke-width="3.2"/>
<circle clip-path="url(#clip762)" cx="772.483" cy="466.791" r="14.4" fill="#009af9" fill-rule="evenodd" fill-opacity="1" stroke="#000000" stroke-opacity="1" stroke-width="3.2"/>
<circle clip-path="url(#clip762)" cx="852.497" cy="620.059" r="14.4" fill="#009af9" fill-rule="evenodd" fill-opacity="1" stroke="#000000" stroke-opacity="1" stroke-width="3.2"/>
<circle clip-path="url(#clip762)" cx="932.51" cy="773.326" r="14.4" fill="#009af9" fill-rule="evenodd" fill-opacity="1" stroke="#000000" stroke-opacity="1" stroke-width="3.2"/>
<circle clip-path="url(#clip762)" cx="1012.52" cy="926.593" r="14.4" fill="#009af9" fill-rule="evenodd" fill-opacity="1" stroke="#000000" stroke-opacity="1" stroke-width="3.2"/>
<circle clip-path="url(#clip762)" cx="1092.54" cy="1079.86" r="14.4" fill="#009af9" fill-rule="evenodd" fill-opacity="1" stroke="#000000" stroke-opacity="1" stroke-width="3.2"/>
<circle clip-path="url(#clip762)" cx="1172.55" cy="1233.13" r="14.4" fill="#009af9" fill-rule="evenodd" fill-opacity="1" stroke="#000000" stroke-opacity="1" stroke-width="3.2"/>
<circle clip-path="url(#clip762)" cx="1252.57" cy="1386.4" r="14.4" fill="#009af9" fill-rule="evenodd" fill-opacity="1" stroke="#000000" stroke-opacity="1" stroke-width="3.2"/>
<circle clip-path="url(#clip762)" cx="1332.58" cy="1386.4" r="14.4" fill="#009af9" fill-rule="evenodd" fill-opacity="1" stroke="#000000" stroke-opacity="1" stroke-width="3.2"/>
<circle clip-path="url(#clip762)" cx="1412.59" cy="1233.13" r="14.4" fill="#009af9" fill-rule="evenodd" fill-opacity="1" stroke="#000000" stroke-opacity="1" stroke-width="3.2"/>
<circle clip-path="url(#clip762)" cx="1492.61" cy="1079.86" r="14.4" fill="#009af9" fill-rule="evenodd" fill-opacity="1" stroke="#000000" stroke-opacity="1" stroke-width="3.2"/>
<circle clip-path="url(#clip762)" cx="1572.62" cy="926.593" r="14.4" fill="#009af9" fill-rule="evenodd" fill-opacity="1" stroke="#000000" stroke-opacity="1" stroke-width="3.2"/>
<circle clip-path="url(#clip762)" cx="1652.63" cy="773.326" r="14.4" fill="#009af9" fill-rule="evenodd" fill-opacity="1" stroke="#000000" stroke-opacity="1" stroke-width="3.2"/>
<circle clip-path="url(#clip762)" cx="1732.65" cy="620.059" r="14.4" fill="#009af9" fill-rule="evenodd" fill-opacity="1" stroke="#000000" stroke-opacity="1" stroke-width="3.2"/>
<circle clip-path="url(#clip762)" cx="1812.66" cy="466.791" r="14.4" fill="#009af9" fill-rule="evenodd" fill-opacity="1" stroke="#000000" stroke-opacity="1" stroke-width="3.2"/>
<circle clip-path="url(#clip762)" cx="1892.68" cy="313.524" r="14.4" fill="#009af9" fill-rule="evenodd" fill-opacity="1" stroke="#000000" stroke-opacity="1" stroke-width="3.2"/>
<circle clip-path="url(#clip762)" cx="1972.69" cy="160.256" r="14.4" fill="#009af9" fill-rule="evenodd" fill-opacity="1" stroke="#000000" stroke-opacity="1" stroke-width="3.2"/>
<circle clip-path="url(#clip762)" cx="2052.7" cy="313.524" r="14.4" fill="#009af9" fill-rule="evenodd" fill-opacity="1" stroke="#000000" stroke-opacity="1" stroke-width="3.2"/>
<circle clip-path="url(#clip762)" cx="2132.72" cy="466.791" r="14.4" fill="#009af9" fill-rule="evenodd" fill-opacity="1" stroke="#000000" stroke-opacity="1" stroke-width="3.2"/>
<circle clip-path="url(#clip762)" cx="2212.73" cy="620.059" r="14.4" fill="#009af9" fill-rule="evenodd" fill-opacity="1" stroke="#000000" stroke-opacity="1" stroke-width="3.2"/>
<circle clip-path="url(#clip762)" cx="2292.75" cy="773.326" r="14.4" fill="#009af9" fill-rule="evenodd" fill-opacity="1" stroke="#000000" stroke-opacity="1" stroke-width="3.2"/>
<polyline clip-path="url(#clip762)" style="stroke:#e26f46; stroke-linecap:round; stroke-linejoin:round; stroke-width:8; stroke-opacity:1; fill:none" points="292.4,773.326 372.414,696.692 452.427,543.425 532.441,390.157 612.455,236.89 692.469,236.89 772.483,390.157 852.497,543.425 932.51,696.692 1012.52,849.96 1092.54,1003.23 1172.55,1156.49 1252.57,1309.76 1332.58,1386.4 1412.59,1309.76 1492.61,1156.49 1572.62,1003.23 1652.63,849.96 1732.65,696.692 1812.66,543.425 1892.68,390.157 1972.69,236.89 2052.7,236.89 2132.72,390.157 2212.73,543.425 2292.75,696.692 "/>
<polyline clip-path="url(#clip762)" style="stroke:#3da44d; stroke-linecap:round; stroke-linejoin:round; stroke-width:8; stroke-opacity:1; fill:none" points="292.4,773.326 372.414,696.692 452.427,620.059 532.441,543.425 612.455,390.157 692.469,313.524 772.483,313.524 852.497,390.157 932.51,543.425 1012.52,696.692 1092.54,849.96 1172.55,1003.23 1252.57,1156.49 1332.58,1271.45 1412.59,1309.76 1492.61,1271.45 1572.62,1156.49 1652.63,1003.23 1732.65,849.96 1812.66,696.692 1892.68,543.425 1972.69,390.157 2052.7,313.524 2132.72,313.524 2212.73,390.157 2292.75,543.425 "/>
<circle clip-path="url(#clip762)" cx="692.469" cy="313.524" r="21.6" fill="#ff0000" fill-rule="evenodd" fill-opacity="1" stroke="#000000" stroke-opacity="1" stroke-width="3.2"/>
<circle clip-path="url(#clip762)" cx="772.483" cy="466.791" r="21.6" fill="#ff0000" fill-rule="evenodd" fill-opacity="1" stroke="#000000" stroke-opacity="1" stroke-width="3.2"/>
<circle clip-path="url(#clip762)" cx="852.497" cy="620.059" r="21.6" fill="#ff0000" fill-rule="evenodd" fill-opacity="1" stroke="#000000" stroke-opacity="1" stroke-width="3.2"/>
<circle clip-path="url(#clip762)" cx="932.51" cy="773.326" r="21.6" fill="#ff0000" fill-rule="evenodd" fill-opacity="1" stroke="#000000" stroke-opacity="1" stroke-width="3.2"/>
<circle clip-path="url(#clip762)" cx="1012.52" cy="926.593" r="21.6" fill="#ff0000" fill-rule="evenodd" fill-opacity="1" stroke="#000000" stroke-opacity="1" stroke-width="3.2"/>
<circle clip-path="url(#clip762)" cx="1092.54" cy="1079.86" r="21.6" fill="#ff0000" fill-rule="evenodd" fill-opacity="1" stroke="#000000" stroke-opacity="1" stroke-width="3.2"/>
<circle clip-path="url(#clip762)" cx="1172.55" cy="1233.13" r="21.6" fill="#ff0000" fill-rule="evenodd" fill-opacity="1" stroke="#000000" stroke-opacity="1" stroke-width="3.2"/>
<circle clip-path="url(#clip762)" cx="1252.57" cy="1386.4" r="21.6" fill="#ff0000" fill-rule="evenodd" fill-opacity="1" stroke="#000000" stroke-opacity="1" stroke-width="3.2"/>
<circle clip-path="url(#clip762)" cx="2052.7" cy="313.524" r="21.6" fill="#ff0000" fill-rule="evenodd" fill-opacity="1" stroke="#000000" stroke-opacity="1" stroke-width="3.2"/>
<circle clip-path="url(#clip762)" cx="2132.72" cy="466.791" r="21.6" fill="#ff0000" fill-rule="evenodd" fill-opacity="1" stroke="#000000" stroke-opacity="1" stroke-width="3.2"/>
<circle clip-path="url(#clip762)" cx="2212.73" cy="620.059" r="21.6" fill="#ff0000" fill-rule="evenodd" fill-opacity="1" stroke="#000000" stroke-opacity="1" stroke-width="3.2"/>
<circle clip-path="url(#clip762)" cx="2292.75" cy="773.326" r="21.6" fill="#ff0000" fill-rule="evenodd" fill-opacity="1" stroke="#000000" stroke-opacity="1" stroke-width="3.2"/>
<circle clip-path="url(#clip762)" cx="372.414" cy="620.059" r="21.6" fill="#008000" fill-rule="evenodd" fill-opacity="1" stroke="#000000" stroke-opacity="1" stroke-width="3.2"/>
<circle clip-path="url(#clip762)" cx="452.427" cy="466.791" r="21.6" fill="#008000" fill-rule="evenodd" fill-opacity="1" stroke="#000000" stroke-opacity="1" stroke-width="3.2"/>
<circle clip-path="url(#clip762)" cx="532.441" cy="313.524" r="21.6" fill="#008000" fill-rule="evenodd" fill-opacity="1" stroke="#000000" stroke-opacity="1" stroke-width="3.2"/>
<circle clip-path="url(#clip762)" cx="612.455" cy="160.256" r="21.6" fill="#008000" fill-rule="evenodd" fill-opacity="1" stroke="#000000" stroke-opacity="1" stroke-width="3.2"/>
<circle clip-path="url(#clip762)" cx="1412.59" cy="1233.13" r="21.6" fill="#008000" fill-rule="evenodd" fill-opacity="1" stroke="#000000" stroke-opacity="1" stroke-width="3.2"/>
<circle clip-path="url(#clip762)" cx="1492.61" cy="1079.86" r="21.6" fill="#008000" fill-rule="evenodd" fill-opacity="1" stroke="#000000" stroke-opacity="1" stroke-width="3.2"/>
<circle clip-path="url(#clip762)" cx="1572.62" cy="926.593" r="21.6" fill="#008000" fill-rule="evenodd" fill-opacity="1" stroke="#000000" stroke-opacity="1" stroke-width="3.2"/>
<circle clip-path="url(#clip762)" cx="1652.63" cy="773.326" r="21.6" fill="#008000" fill-rule="evenodd" fill-opacity="1" stroke="#000000" stroke-opacity="1" stroke-width="3.2"/>
<circle clip-path="url(#clip762)" cx="1732.65" cy="620.059" r="21.6" fill="#008000" fill-rule="evenodd" fill-opacity="1" stroke="#000000" stroke-opacity="1" stroke-width="3.2"/>
<circle clip-path="url(#clip762)" cx="1812.66" cy="466.791" r="21.6" fill="#008000" fill-rule="evenodd" fill-opacity="1" stroke="#000000" stroke-opacity="1" stroke-width="3.2"/>
<circle clip-path="url(#clip762)" cx="1892.68" cy="313.524" r="21.6" fill="#008000" fill-rule="evenodd" fill-opacity="1" stroke="#000000" stroke-opacity="1" stroke-width="3.2"/>
<circle clip-path="url(#clip762)" cx="1972.69" cy="160.256" r="21.6" fill="#008000" fill-rule="evenodd" fill-opacity="1" stroke="#000000" stroke-opacity="1" stroke-width="3.2"/>
<path clip-path="url(#clip760)" d="M1857.94 1379.86 L2282.08 1379.86 L2282.08 1068.82 L1857.94 1068.82  Z" fill="#ffffff" fill-rule="evenodd" fill-opacity="1"/>
<polyline clip-path="url(#clip760)" style="stroke:#000000; stroke-linecap:round; stroke-linejoin:round; stroke-width:4; stroke-opacity:1; fill:none" points="1857.94,1379.86 2282.08,1379.86 2282.08,1068.82 1857.94,1068.82 1857.94,1379.86 "/>
<polyline clip-path="url(#clip760)" style="stroke:#009af9; stroke-linecap:round; stroke-linejoin:round; stroke-width:4; stroke-opacity:1; fill:none" points="1881.49,1120.66 2022.85,1120.66 "/>
<circle clip-path="url(#clip760)" cx="1952.17" cy="1120.66" r="19.633" fill="#009af9" fill-rule="evenodd" fill-opacity="1" stroke="#000000" stroke-opacity="1" stroke-width="4.55111"/>
<path clip-path="url(#clip760)" d="M2051.09 1107.22 L2051.09 1120.2 L2056.97 1120.2 Q2060.23 1120.2 2062.01 1118.52 Q2063.8 1116.83 2063.8 1113.7 Q2063.8 1110.6 2062.01 1108.91 Q2060.23 1107.22 2056.97 1107.22 L2051.09 1107.22 M2046.41 1103.38 L2056.97 1103.38 Q2062.78 1103.38 2065.74 1106.02 Q2068.73 1108.63 2068.73 1113.7 Q2068.73 1118.82 2065.74 1121.43 Q2062.78 1124.05 2056.97 1124.05 L2051.09 1124.05 L2051.09 1137.94 L2046.41 1137.94 L2046.41 1103.38 Z" fill="#000000" fill-rule="nonzero" fill-opacity="1" /><path clip-path="url(#clip760)" d="M2089 1115.99 Q2088.29 1115.58 2087.43 1115.39 Q2086.6 1115.18 2085.58 1115.18 Q2081.97 1115.18 2080.02 1117.54 Q2078.1 1119.88 2078.1 1124.28 L2078.1 1137.94 L2073.82 1137.94 L2073.82 1112.01 L2078.1 1112.01 L2078.1 1116.04 Q2079.44 1113.68 2081.6 1112.54 Q2083.75 1111.39 2086.83 1111.39 Q2087.27 1111.39 2087.8 1111.45 Q2088.33 1111.5 2088.98 1111.62 L2089 1115.99 Z" fill="#000000" fill-rule="nonzero" fill-opacity="1" /><path clip-path="url(#clip760)" d="M2093.47 1112.01 L2097.73 1112.01 L2097.73 1137.94 L2093.47 1137.94 L2093.47 1112.01 M2093.47 1101.92 L2097.73 1101.92 L2097.73 1107.31 L2093.47 1107.31 L2093.47 1101.92 Z" fill="#000000" fill-rule="nonzero" fill-opacity="1" /><path clip-path="url(#clip760)" d="M2125.3 1113.01 L2125.3 1116.99 Q2123.49 1115.99 2121.67 1115.51 Q2119.86 1115 2118.01 1115 Q2113.87 1115 2111.57 1117.64 Q2109.28 1120.25 2109.28 1125 Q2109.28 1129.74 2111.57 1132.38 Q2113.87 1135 2118.01 1135 Q2119.86 1135 2121.67 1134.51 Q2123.49 1134 2125.3 1133.01 L2125.3 1136.94 Q2123.52 1137.77 2121.6 1138.19 Q2119.7 1138.61 2117.55 1138.61 Q2111.69 1138.61 2108.24 1134.93 Q2104.79 1131.25 2104.79 1125 Q2104.79 1118.65 2108.26 1115.02 Q2111.76 1111.39 2117.82 1111.39 Q2119.79 1111.39 2121.67 1111.8 Q2123.54 1112.2 2125.3 1113.01 Z" fill="#000000" fill-rule="nonzero" fill-opacity="1" /><path clip-path="url(#clip760)" d="M2154.88 1123.91 L2154.88 1125.99 L2135.3 1125.99 Q2135.58 1130.39 2137.94 1132.7 Q2140.32 1135 2144.56 1135 Q2147.01 1135 2149.31 1134.39 Q2151.62 1133.79 2153.89 1132.59 L2153.89 1136.62 Q2151.6 1137.59 2149.19 1138.1 Q2146.78 1138.61 2144.31 1138.61 Q2138.1 1138.61 2134.47 1135 Q2130.86 1131.39 2130.86 1125.23 Q2130.86 1118.86 2134.28 1115.14 Q2137.73 1111.39 2143.56 1111.39 Q2148.8 1111.39 2151.83 1114.77 Q2154.88 1118.12 2154.88 1123.91 M2150.62 1122.66 Q2150.58 1119.16 2148.66 1117.08 Q2146.76 1115 2143.61 1115 Q2140.05 1115 2137.89 1117.01 Q2135.76 1119.02 2135.44 1122.68 L2150.62 1122.66 Z" fill="#000000" fill-rule="nonzero" fill-opacity="1" /><path clip-path="url(#clip760)" d="M2178.4 1112.77 L2178.4 1116.8 Q2176.6 1115.88 2174.65 1115.41 Q2172.71 1114.95 2170.62 1114.95 Q2167.45 1114.95 2165.86 1115.92 Q2164.28 1116.89 2164.28 1118.84 Q2164.28 1120.32 2165.42 1121.18 Q2166.55 1122.01 2169.98 1122.77 L2171.43 1123.1 Q2175.97 1124.07 2177.87 1125.85 Q2179.79 1127.61 2179.79 1130.78 Q2179.79 1134.39 2176.92 1136.5 Q2174.07 1138.61 2169.07 1138.61 Q2166.99 1138.61 2164.72 1138.19 Q2162.48 1137.8 2159.98 1136.99 L2159.98 1132.59 Q2162.34 1133.82 2164.63 1134.44 Q2166.92 1135.04 2169.17 1135.04 Q2172.18 1135.04 2173.8 1134.02 Q2175.42 1132.98 2175.42 1131.11 Q2175.42 1129.37 2174.24 1128.45 Q2173.08 1127.52 2169.12 1126.66 L2167.64 1126.32 Q2163.68 1125.48 2161.92 1123.77 Q2160.16 1122.03 2160.16 1119.02 Q2160.16 1115.37 2162.75 1113.38 Q2165.35 1111.39 2170.12 1111.39 Q2172.48 1111.39 2174.56 1111.73 Q2176.64 1112.08 2178.4 1112.77 Z" fill="#000000" fill-rule="nonzero" fill-opacity="1" /><polyline clip-path="url(#clip760)" style="stroke:#e26f46; stroke-linecap:round; stroke-linejoin:round; stroke-width:8; stroke-opacity:1; fill:none" points="1881.49,1172.5 2022.85,1172.5 "/>
<path clip-path="url(#clip760)" d="M2068.66 1156.35 L2068.66 1160.91 Q2066 1159.64 2063.63 1159.01 Q2061.27 1158.39 2059.07 1158.39 Q2055.25 1158.39 2053.17 1159.87 Q2051.11 1161.35 2051.11 1164.08 Q2051.11 1166.37 2052.48 1167.55 Q2053.87 1168.71 2057.71 1169.43 L2060.53 1170.01 Q2065.76 1171 2068.24 1173.53 Q2070.74 1176.03 2070.74 1180.24 Q2070.74 1185.26 2067.36 1187.85 Q2064 1190.45 2057.5 1190.45 Q2055.05 1190.45 2052.27 1189.89 Q2049.51 1189.34 2046.55 1188.25 L2046.55 1183.43 Q2049.4 1185.03 2052.13 1185.84 Q2054.86 1186.65 2057.5 1186.65 Q2061.5 1186.65 2063.68 1185.08 Q2065.86 1183.5 2065.86 1180.59 Q2065.86 1178.04 2064.28 1176.61 Q2062.73 1175.17 2059.17 1174.45 L2056.32 1173.9 Q2051.09 1172.86 2048.75 1170.63 Q2046.41 1168.41 2046.41 1164.45 Q2046.41 1159.87 2049.63 1157.23 Q2052.87 1154.59 2058.54 1154.59 Q2060.97 1154.59 2063.5 1155.03 Q2066.02 1155.47 2068.66 1156.35 Z" fill="#000000" fill-rule="nonzero" fill-opacity="1" /><path clip-path="url(#clip760)" d="M2099.4 1174.13 L2099.4 1189.78 L2095.14 1189.78 L2095.14 1174.27 Q2095.14 1170.59 2093.7 1168.76 Q2092.27 1166.93 2089.4 1166.93 Q2085.95 1166.93 2083.96 1169.13 Q2081.97 1171.33 2081.97 1175.12 L2081.97 1189.78 L2077.69 1189.78 L2077.69 1153.76 L2081.97 1153.76 L2081.97 1167.88 Q2083.5 1165.54 2085.56 1164.38 Q2087.64 1163.23 2090.35 1163.23 Q2094.81 1163.23 2097.11 1166 Q2099.4 1168.76 2099.4 1174.13 Z" fill="#000000" fill-rule="nonzero" fill-opacity="1" /><path clip-path="url(#clip760)" d="M2117.94 1166.84 Q2114.51 1166.84 2112.52 1169.52 Q2110.53 1172.18 2110.53 1176.84 Q2110.53 1181.49 2112.5 1184.17 Q2114.49 1186.84 2117.94 1186.84 Q2121.34 1186.84 2123.33 1184.15 Q2125.32 1181.47 2125.32 1176.84 Q2125.32 1172.23 2123.33 1169.54 Q2121.34 1166.84 2117.94 1166.84 M2117.94 1163.23 Q2123.49 1163.23 2126.67 1166.84 Q2129.84 1170.45 2129.84 1176.84 Q2129.84 1183.2 2126.67 1186.84 Q2123.49 1190.45 2117.94 1190.45 Q2112.36 1190.45 2109.19 1186.84 Q2106.04 1183.2 2106.04 1176.84 Q2106.04 1170.45 2109.19 1166.84 Q2112.36 1163.23 2117.94 1163.23 Z" fill="#000000" fill-rule="nonzero" fill-opacity="1" /><path clip-path="url(#clip760)" d="M2151.92 1167.83 Q2151.2 1167.42 2150.35 1167.23 Q2149.51 1167.02 2148.49 1167.02 Q2144.88 1167.02 2142.94 1169.38 Q2141.02 1171.72 2141.02 1176.12 L2141.02 1189.78 L2136.74 1189.78 L2136.74 1163.85 L2141.02 1163.85 L2141.02 1167.88 Q2142.36 1165.52 2144.51 1164.38 Q2146.67 1163.23 2149.74 1163.23 Q2150.18 1163.23 2150.72 1163.29 Q2151.25 1163.34 2151.9 1163.46 L2151.92 1167.83 Z" fill="#000000" fill-rule="nonzero" fill-opacity="1" /><path clip-path="url(#clip760)" d="M2160.6 1156.49 L2160.6 1163.85 L2169.37 1163.85 L2169.37 1167.16 L2160.6 1167.16 L2160.6 1181.23 Q2160.6 1184.41 2161.46 1185.31 Q2162.34 1186.21 2165 1186.21 L2169.37 1186.21 L2169.37 1189.78 L2165 1189.78 Q2160.07 1189.78 2158.19 1187.95 Q2156.32 1186.1 2156.32 1181.23 L2156.32 1167.16 L2153.19 1167.16 L2153.19 1163.85 L2156.32 1163.85 L2156.32 1156.49 L2160.6 1156.49 Z" fill="#000000" fill-rule="nonzero" fill-opacity="1" /><path clip-path="url(#clip760)" d="M2190.23 1155.22 L2197.2 1155.22 L2206.02 1178.73 L2214.88 1155.22 L2221.85 1155.22 L2221.85 1189.78 L2217.29 1189.78 L2217.29 1159.43 L2208.38 1183.13 L2203.68 1183.13 L2194.77 1159.43 L2194.77 1189.78 L2190.23 1189.78 L2190.23 1155.22 Z" fill="#000000" fill-rule="nonzero" fill-opacity="1" /><path clip-path="url(#clip760)" d="M2242.68 1159.82 L2236.34 1177.02 L2249.05 1177.02 L2242.68 1159.82 M2240.05 1155.22 L2245.35 1155.22 L2258.52 1189.78 L2253.66 1189.78 L2250.51 1180.91 L2234.93 1180.91 L2231.78 1189.78 L2226.85 1189.78 L2240.05 1155.22 Z" fill="#000000" fill-rule="nonzero" fill-opacity="1" /><polyline clip-path="url(#clip760)" style="stroke:#3da44d; stroke-linecap:round; stroke-linejoin:round; stroke-width:8; stroke-opacity:1; fill:none" points="1881.49,1224.34 2022.85,1224.34 "/>
<path clip-path="url(#clip760)" d="M2046.41 1207.06 L2051.09 1207.06 L2051.09 1237.68 L2067.92 1237.68 L2067.92 1241.62 L2046.41 1241.62 L2046.41 1207.06 Z" fill="#000000" fill-rule="nonzero" fill-opacity="1" /><path clip-path="url(#clip760)" d="M2081.85 1218.68 Q2078.43 1218.68 2076.44 1221.36 Q2074.44 1224.02 2074.44 1228.68 Q2074.44 1233.33 2076.41 1236.01 Q2078.4 1238.68 2081.85 1238.68 Q2085.25 1238.68 2087.25 1235.99 Q2089.24 1233.31 2089.24 1228.68 Q2089.24 1224.07 2087.25 1221.38 Q2085.25 1218.68 2081.85 1218.68 M2081.85 1215.07 Q2087.41 1215.07 2090.58 1218.68 Q2093.75 1222.29 2093.75 1228.68 Q2093.75 1235.04 2090.58 1238.68 Q2087.41 1242.29 2081.85 1242.29 Q2076.27 1242.29 2073.1 1238.68 Q2069.95 1235.04 2069.95 1228.68 Q2069.95 1222.29 2073.1 1218.68 Q2076.27 1215.07 2081.85 1215.07 Z" fill="#000000" fill-rule="nonzero" fill-opacity="1" /><path clip-path="url(#clip760)" d="M2122.36 1225.97 L2122.36 1241.62 L2118.1 1241.62 L2118.1 1226.11 Q2118.1 1222.43 2116.67 1220.6 Q2115.23 1218.77 2112.36 1218.77 Q2108.91 1218.77 2106.92 1220.97 Q2104.93 1223.17 2104.93 1226.96 L2104.93 1241.62 L2100.65 1241.62 L2100.65 1215.69 L2104.93 1215.69 L2104.93 1219.72 Q2106.46 1217.38 2108.52 1216.22 Q2110.6 1215.07 2113.31 1215.07 Q2117.78 1215.07 2120.07 1217.84 Q2122.36 1220.6 2122.36 1225.97 Z" fill="#000000" fill-rule="nonzero" fill-opacity="1" /><path clip-path="url(#clip760)" d="M2147.92 1228.35 Q2147.92 1223.72 2145.99 1221.18 Q2144.1 1218.63 2140.65 1218.63 Q2137.22 1218.63 2135.3 1221.18 Q2133.4 1223.72 2133.4 1228.35 Q2133.4 1232.96 2135.3 1235.51 Q2137.22 1238.05 2140.65 1238.05 Q2144.1 1238.05 2145.99 1235.51 Q2147.92 1232.96 2147.92 1228.35 M2152.18 1238.4 Q2152.18 1245.02 2149.24 1248.24 Q2146.3 1251.48 2140.23 1251.48 Q2137.99 1251.48 2135.99 1251.13 Q2134 1250.81 2132.13 1250.11 L2132.13 1245.97 Q2134 1246.99 2135.83 1247.47 Q2137.66 1247.96 2139.56 1247.96 Q2143.75 1247.96 2145.83 1245.76 Q2147.92 1243.58 2147.92 1239.16 L2147.92 1237.06 Q2146.6 1239.35 2144.54 1240.48 Q2142.48 1241.62 2139.61 1241.62 Q2134.84 1241.62 2131.92 1237.98 Q2129 1234.35 2129 1228.35 Q2129 1222.33 2131.92 1218.7 Q2134.84 1215.07 2139.61 1215.07 Q2142.48 1215.07 2144.54 1216.2 Q2146.6 1217.33 2147.92 1219.63 L2147.92 1215.69 L2152.18 1215.69 L2152.18 1238.4 Z" fill="#000000" fill-rule="nonzero" fill-opacity="1" /><path clip-path="url(#clip760)" d="M2176.2 1207.06 L2183.17 1207.06 L2191.99 1230.57 L2200.86 1207.06 L2207.82 1207.06 L2207.82 1241.62 L2203.26 1241.62 L2203.26 1211.27 L2194.35 1234.97 L2189.65 1234.97 L2180.74 1211.27 L2180.74 1241.62 L2176.2 1241.62 L2176.2 1207.06 Z" fill="#000000" fill-rule="nonzero" fill-opacity="1" /><path clip-path="url(#clip760)" d="M2228.66 1211.66 L2222.31 1228.86 L2235.02 1228.86 L2228.66 1211.66 M2226.02 1207.06 L2231.32 1207.06 L2244.49 1241.62 L2239.63 1241.62 L2236.48 1232.75 L2220.9 1232.75 L2217.75 1241.62 L2212.82 1241.62 L2226.02 1207.06 Z" fill="#000000" fill-rule="nonzero" fill-opacity="1" /><circle clip-path="url(#clip760)" cx="1952.17" cy="1276.18" r="21.2677" fill="#ff0000" fill-rule="evenodd" fill-opacity="1" stroke="#000000" stroke-opacity="1" stroke-width="3.15077"/>
<path clip-path="url(#clip760)" d="M2068.66 1260.03 L2068.66 1264.59 Q2066 1263.32 2063.63 1262.69 Q2061.27 1262.07 2059.07 1262.07 Q2055.25 1262.07 2053.17 1263.55 Q2051.11 1265.03 2051.11 1267.76 Q2051.11 1270.05 2052.48 1271.23 Q2053.87 1272.39 2057.71 1273.11 L2060.53 1273.69 Q2065.76 1274.68 2068.24 1277.21 Q2070.74 1279.71 2070.74 1283.92 Q2070.74 1288.94 2067.36 1291.53 Q2064 1294.13 2057.5 1294.13 Q2055.05 1294.13 2052.27 1293.57 Q2049.51 1293.02 2046.55 1291.93 L2046.55 1287.11 Q2049.4 1288.71 2052.13 1289.52 Q2054.86 1290.33 2057.5 1290.33 Q2061.5 1290.33 2063.68 1288.76 Q2065.86 1287.18 2065.86 1284.27 Q2065.86 1281.72 2064.28 1280.29 Q2062.73 1278.85 2059.17 1278.13 L2056.32 1277.58 Q2051.09 1276.54 2048.75 1274.31 Q2046.41 1272.09 2046.41 1268.13 Q2046.41 1263.55 2049.63 1260.91 Q2052.87 1258.27 2058.54 1258.27 Q2060.97 1258.27 2063.5 1258.71 Q2066.02 1259.15 2068.66 1260.03 Z" fill="#000000" fill-rule="nonzero" fill-opacity="1" /><path clip-path="url(#clip760)" d="M2100.02 1279.43 L2100.02 1281.51 L2080.44 1281.51 Q2080.72 1285.91 2083.08 1288.22 Q2085.46 1290.52 2089.7 1290.52 Q2092.15 1290.52 2094.44 1289.91 Q2096.76 1289.31 2099.03 1288.11 L2099.03 1292.14 Q2096.74 1293.11 2094.33 1293.62 Q2091.92 1294.13 2089.44 1294.13 Q2083.24 1294.13 2079.61 1290.52 Q2076 1286.91 2076 1280.75 Q2076 1274.38 2079.42 1270.66 Q2082.87 1266.91 2088.7 1266.91 Q2093.93 1266.91 2096.97 1270.29 Q2100.02 1273.64 2100.02 1279.43 M2095.76 1278.18 Q2095.72 1274.68 2093.8 1272.6 Q2091.9 1270.52 2088.75 1270.52 Q2085.18 1270.52 2083.03 1272.53 Q2080.9 1274.54 2080.58 1278.2 L2095.76 1278.18 Z" fill="#000000" fill-rule="nonzero" fill-opacity="1" /><path clip-path="url(#clip760)" d="M2107.01 1257.44 L2111.27 1257.44 L2111.27 1293.46 L2107.01 1293.46 L2107.01 1257.44 Z" fill="#000000" fill-rule="nonzero" fill-opacity="1" /><path clip-path="url(#clip760)" d="M2120.18 1257.44 L2124.44 1257.44 L2124.44 1293.46 L2120.18 1293.46 L2120.18 1257.44 Z" fill="#000000" fill-rule="nonzero" fill-opacity="1" /><circle clip-path="url(#clip760)" cx="1952.17" cy="1328.02" r="21.2677" fill="#008000" fill-rule="evenodd" fill-opacity="1" stroke="#000000" stroke-opacity="1" stroke-width="3.15077"/>
<path clip-path="url(#clip760)" d="M2051.09 1328.79 L2051.09 1341.45 L2058.59 1341.45 Q2062.36 1341.45 2064.17 1339.9 Q2066 1338.33 2066 1335.11 Q2066 1331.87 2064.17 1330.34 Q2062.36 1328.79 2058.59 1328.79 L2051.09 1328.79 M2051.09 1314.58 L2051.09 1325 L2058.01 1325 Q2061.44 1325 2063.1 1323.72 Q2064.79 1322.43 2064.79 1319.79 Q2064.79 1317.17 2063.1 1315.88 Q2061.44 1314.58 2058.01 1314.58 L2051.09 1314.58 M2046.41 1310.74 L2058.36 1310.74 Q2063.7 1310.74 2066.6 1312.96 Q2069.49 1315.18 2069.49 1319.28 Q2069.49 1322.45 2068.01 1324.32 Q2066.53 1326.2 2063.66 1326.66 Q2067.11 1327.4 2069 1329.76 Q2070.93 1332.1 2070.93 1335.62 Q2070.93 1340.25 2067.78 1342.77 Q2064.63 1345.3 2058.82 1345.3 L2046.41 1345.3 L2046.41 1310.74 Z" fill="#000000" fill-rule="nonzero" fill-opacity="1" /><path clip-path="url(#clip760)" d="M2078.31 1335.06 L2078.31 1319.37 L2082.57 1319.37 L2082.57 1334.9 Q2082.57 1338.58 2084 1340.44 Q2085.44 1342.26 2088.31 1342.26 Q2091.76 1342.26 2093.75 1340.06 Q2095.76 1337.87 2095.76 1334.07 L2095.76 1319.37 L2100.02 1319.37 L2100.02 1345.3 L2095.76 1345.3 L2095.76 1341.31 Q2094.21 1343.68 2092.15 1344.83 Q2090.12 1345.97 2087.41 1345.97 Q2082.94 1345.97 2080.62 1343.19 Q2078.31 1340.41 2078.31 1335.06 M2089.03 1318.75 L2089.03 1318.75 Z" fill="#000000" fill-rule="nonzero" fill-opacity="1" /><path clip-path="url(#clip760)" d="M2119.58 1347.7 Q2117.78 1352.33 2116.06 1353.75 Q2114.35 1355.16 2111.48 1355.16 L2108.08 1355.16 L2108.08 1351.59 L2110.58 1351.59 Q2112.34 1351.59 2113.31 1350.76 Q2114.28 1349.93 2115.46 1346.82 L2116.23 1344.88 L2105.74 1319.37 L2110.25 1319.37 L2118.36 1339.65 L2126.46 1319.37 L2130.97 1319.37 L2119.58 1347.7 Z" fill="#000000" fill-rule="nonzero" fill-opacity="1" /></svg>
