<?xml version="1.0" encoding="utf-8"?>
<svg xmlns="http://www.w3.org/2000/svg" xmlns:xlink="http://www.w3.org/1999/xlink" width="600" height="400" viewBox="0 0 2400 1600">
<defs>
  <clipPath id="clip660">
    <rect x="0" y="0" width="2400" height="1600"/>
  </clipPath>
</defs>
<path clip-path="url(#clip660)" d="M0 1600 L2400 1600 L2400 0 L0 0  Z" fill="#ffffff" fill-rule="evenodd" fill-opacity="1"/>
<defs>
  <clipPath id="clip661">
    <rect x="480" y="0" width="1681" height="1600"/>
  </clipPath>
</defs>
<path clip-path="url(#clip660)" d="M169.121 1486.45 L2352.76 1486.45 L2352.76 47.2441 L169.121 47.2441  Z" fill="#ffffff" fill-rule="evenodd" fill-opacity="1"/>
<defs>
  <clipPath id="clip662">
    <rect x="169" y="47" width="2185" height="1440"/>
  </clipPath>
</defs>
<polyline clip-path="url(#clip662)" style="stroke:#000000; stroke-linecap:round; stroke-linejoin:round; stroke-width:2; stroke-opacity:0.1; fill:none" points="188.005,1486.45 188.005,47.2441 "/>
<polyline clip-path="url(#clip662)" style="stroke:#000000; stroke-linecap:round; stroke-linejoin:round; stroke-width:2; stroke-opacity:0.1; fill:none" points="617.178,1486.45 617.178,47.2441 "/>
<polyline clip-path="url(#clip662)" style="stroke:#000000; stroke-linecap:round; stroke-linejoin:round; stroke-width:2; stroke-opacity:0.1; fill:none" points="1046.35,1486.45 1046.35,47.2441 "/>
<polyline clip-path="url(#clip662)" style="stroke:#000000; stroke-linecap:round; stroke-linejoin:round; stroke-width:2; stroke-opacity:0.1; fill:none" points="1475.53,1486.45 1475.53,47.2441 "/>
<polyline clip-path="url(#clip662)" style="stroke:#000000; stroke-linecap:round; stroke-linejoin:round; stroke-width:2; stroke-opacity:0.1; fill:none" points="1904.7,1486.45 1904.7,47.2441 "/>
<polyline clip-path="url(#clip662)" style="stroke:#000000; stroke-linecap:round; stroke-linejoin:round; stroke-width:2; stroke-opacity:0.1; fill:none" points="2333.87,1486.45 2333.87,47.2441 "/>
<polyline clip-path="url(#clip660)" style="stroke:#000000; stroke-linecap:round; stroke-linejoin:round; stroke-width:4; stroke-opacity:1; fill:none" points="169.121,1486.45 2352.76,1486.45 "/>
<polyline clip-path="url(#clip660)" style="stroke:#000000; stroke-linecap:round; stroke-linejoin:round; stroke-width:4; stroke-opacity:1; fill:none" points="188.005,1486.45 188.005,1467.55 "/>
<polyline clip-path="url(#clip660)" style="stroke:#000000; stroke-linecap:round; stroke-linejoin:round; stroke-width:4; stroke-opacity:1; fill:none" points="617.178,1486.45 617.178,1467.55 "/>
<polyline clip-path="url(#clip660)" style="stroke:#000000; stroke-linecap:round; stroke-linejoin:round; stroke-width:4; stroke-opacity:1; fill:none" points="1046.35,1486.45 1046.35,1467.55 "/>
<polyline clip-path="url(#clip660)" style="stroke:#000000; stroke-linecap:round; stroke-linejoin:round; stroke-width:4; stroke-opacity:1; fill:none" points="1475.53,1486.45 1475.53,1467.55 "/>
<polyline clip-path="url(#clip660)" style="stroke:#000000; stroke-linecap:round; stroke-linejoin:round; stroke-width:4; stroke-opacity:1; fill:none" points="1904.7,1486.45 1904.7,1467.55 "/>
<polyline clip-path="url(#clip660)" style="stroke:#000000; stroke-linecap:round; stroke-linejoin:round; stroke-width:4; stroke-opacity:1; fill:none" points="2333.87,1486.45 2333.87,1467.55 "/>
<path clip-path="url(#clip660)" d="M188.005 1517.37 Q184.394 1517.37 182.565 1520.93 Q180.76 1524.47 180.76 1531.6 Q180.76 1538.71 182.565 1542.27 Q184.394 1545.82 188.005 1545.82 Q191.639 1545.82 193.445 1542.27 Q195.273 1538.71 195.273 1531.6 Q195.273 1524.47 193.445 1520.93 Q191.639 1517.37 188.005 1517.37 M188.005 1513.66 Q193.815 1513.66 196.871 1518.27 Q199.949 1522.85 199.949 1531.6 Q199.949 1540.33 196.871 1544.94 Q193.815 1549.52 188.005 1549.52 Q182.195 1549.52 179.116 1544.94 Q176.061 1540.33 176.061 1531.6 Q176.061 1522.85 179.116 1518.27 Q182.195 1513.66 188.005 1513.66 Z" fill="#000000" fill-rule="nonzero" fill-opacity="1" /><path clip-path="url(#clip660)" d="M591.866 1544.91 L599.505 1544.91 L599.505 1518.55 L591.195 1520.21 L591.195 1515.95 L599.459 1514.29 L604.135 1514.29 L604.135 1544.91 L611.773 1544.91 L611.773 1548.85 L591.866 1548.85 L591.866 1544.91 Z" fill="#000000" fill-rule="nonzero" fill-opacity="1" /><path clip-path="url(#clip660)" d="M631.218 1517.37 Q627.607 1517.37 625.778 1520.93 Q623.972 1524.47 623.972 1531.6 Q623.972 1538.71 625.778 1542.27 Q627.607 1545.82 631.218 1545.82 Q634.852 1545.82 636.657 1542.27 Q638.486 1538.71 638.486 1531.6 Q638.486 1524.47 636.657 1520.93 Q634.852 1517.37 631.218 1517.37 M631.218 1513.66 Q637.028 1513.66 640.083 1518.27 Q643.162 1522.85 643.162 1531.6 Q643.162 1540.33 640.083 1544.94 Q637.028 1549.52 631.218 1549.52 Q625.408 1549.52 622.329 1544.94 Q619.273 1540.33 619.273 1531.6 Q619.273 1522.85 622.329 1518.27 Q625.408 1513.66 631.218 1513.66 Z" fill="#000000" fill-rule="nonzero" fill-opacity="1" /><path clip-path="url(#clip660)" d="M1025.13 1544.91 L1041.44 1544.91 L1041.44 1548.85 L1019.5 1548.85 L1019.5 1544.91 Q1022.16 1542.16 1026.75 1537.53 Q1031.35 1532.88 1032.53 1531.53 Q1034.78 1529.01 1035.66 1527.27 Q1036.56 1525.51 1036.56 1523.82 Q1036.56 1521.07 1034.62 1519.33 Q1032.69 1517.6 1029.59 1517.6 Q1027.39 1517.6 1024.94 1518.36 Q1022.51 1519.13 1019.73 1520.68 L1019.73 1515.95 Q1022.56 1514.82 1025.01 1514.24 Q1027.46 1513.66 1029.5 1513.66 Q1034.87 1513.66 1038.06 1516.35 Q1041.26 1519.03 1041.26 1523.52 Q1041.26 1525.65 1040.45 1527.57 Q1039.66 1529.47 1037.56 1532.07 Q1036.98 1532.74 1033.88 1535.95 Q1030.77 1539.15 1025.13 1544.91 Z" fill="#000000" fill-rule="nonzero" fill-opacity="1" /><path clip-path="url(#clip660)" d="M1061.26 1517.37 Q1057.65 1517.37 1055.82 1520.93 Q1054.01 1524.47 1054.01 1531.6 Q1054.01 1538.71 1055.82 1542.27 Q1057.65 1545.82 1061.26 1545.82 Q1064.89 1545.82 1066.7 1542.27 Q1068.53 1538.71 1068.53 1531.6 Q1068.53 1524.47 1066.7 1520.93 Q1064.89 1517.37 1061.26 1517.37 M1061.26 1513.66 Q1067.07 1513.66 1070.12 1518.27 Q1073.2 1522.85 1073.2 1531.6 Q1073.2 1540.33 1070.12 1544.94 Q1067.07 1549.52 1061.26 1549.52 Q1055.45 1549.52 1052.37 1544.94 Q1049.31 1540.33 1049.31 1531.6 Q1049.31 1522.85 1052.37 1518.27 Q1055.45 1513.66 1061.26 1513.66 Z" fill="#000000" fill-rule="nonzero" fill-opacity="1" /><path clip-path="url(#clip660)" d="M1464.37 1530.21 Q1467.72 1530.93 1469.6 1533.2 Q1471.5 1535.47 1471.5 1538.8 Q1471.5 1543.92 1467.98 1546.72 Q1464.46 1549.52 1457.98 1549.52 Q1455.8 1549.52 1453.49 1549.08 Q1451.2 1548.66 1448.74 1547.81 L1448.74 1543.29 Q1450.69 1544.43 1453 1545.01 Q1455.32 1545.58 1457.84 1545.58 Q1462.24 1545.58 1464.53 1543.85 Q1466.84 1542.11 1466.84 1538.8 Q1466.84 1535.75 1464.69 1534.03 Q1462.56 1532.3 1458.74 1532.3 L1454.72 1532.3 L1454.72 1528.45 L1458.93 1528.45 Q1462.38 1528.45 1464.21 1527.09 Q1466.03 1525.7 1466.03 1523.11 Q1466.03 1520.45 1464.14 1519.03 Q1462.26 1517.6 1458.74 1517.6 Q1456.82 1517.6 1454.62 1518.01 Q1452.42 1518.43 1449.78 1519.31 L1449.78 1515.14 Q1452.45 1514.4 1454.76 1514.03 Q1457.1 1513.66 1459.16 1513.66 Q1464.48 1513.66 1467.59 1516.09 Q1470.69 1518.5 1470.69 1522.62 Q1470.69 1525.49 1469.04 1527.48 Q1467.4 1529.45 1464.37 1530.21 Z" fill="#000000" fill-rule="nonzero" fill-opacity="1" /><path clip-path="url(#clip660)" d="M1490.36 1517.37 Q1486.75 1517.37 1484.92 1520.93 Q1483.12 1524.47 1483.12 1531.6 Q1483.12 1538.71 1484.92 1542.27 Q1486.75 1545.82 1490.36 1545.82 Q1494 1545.82 1495.8 1542.27 Q1497.63 1538.71 1497.63 1531.6 Q1497.63 1524.47 1495.8 1520.93 Q1494 1517.37 1490.36 1517.37 M1490.36 1513.66 Q1496.17 1513.66 1499.23 1518.27 Q1502.31 1522.85 1502.31 1531.6 Q1502.31 1540.33 1499.23 1544.94 Q1496.17 1549.52 1490.36 1549.52 Q1484.55 1549.52 1481.47 1544.94 Q1478.42 1540.33 1478.42 1531.6 Q1478.42 1522.85 1481.47 1518.27 Q1484.55 1513.66 1490.36 1513.66 Z" fill="#000000" fill-rule="nonzero" fill-opacity="1" /><path clip-path="url(#clip660)" d="M1892.87 1518.36 L1881.06 1536.81 L1892.87 1536.81 L1892.87 1518.36 M1891.64 1514.29 L1897.52 1514.29 L1897.52 1536.81 L1902.45 1536.81 L1902.45 1540.7 L1897.52 1540.7 L1897.52 1548.85 L1892.87 1548.85 L1892.87 1540.7 L1877.27 1540.7 L1877.27 1536.19 L1891.64 1514.29 Z" fill="#000000" fill-rule="nonzero" fill-opacity="1" /><path clip-path="url(#clip660)" d="M1920.18 1517.37 Q1916.57 1517.37 1914.75 1520.93 Q1912.94 1524.47 1912.94 1531.6 Q1912.94 1538.71 1914.75 1542.27 Q1916.57 1545.82 1920.18 1545.82 Q1923.82 1545.82 1925.62 1542.27 Q1927.45 1538.71 1927.45 1531.6 Q1927.45 1524.47 1925.62 1520.93 Q1923.82 1517.37 1920.18 1517.37 M1920.18 1513.66 Q1925.99 1513.66 1929.05 1518.27 Q1932.13 1522.85 1932.13 1531.6 Q1932.13 1540.33 1929.05 1544.94 Q1925.99 1549.52 1920.18 1549.52 Q1914.37 1549.52 1911.3 1544.94 Q1908.24 1540.33 1908.24 1531.6 Q1908.24 1522.85 1911.3 1518.27 Q1914.37 1513.66 1920.18 1513.66 Z" fill="#000000" fill-rule="nonzero" fill-opacity="1" /><path clip-path="url(#clip660)" d="M2308.57 1514.29 L2326.93 1514.29 L2326.93 1518.22 L2312.85 1518.22 L2312.85 1526.7 Q2313.87 1526.35 2314.89 1526.19 Q2315.91 1526 2316.93 1526 Q2322.71 1526 2326.09 1529.17 Q2329.47 1532.34 2329.47 1537.76 Q2329.47 1543.34 2326 1546.44 Q2322.53 1549.52 2316.21 1549.52 Q2314.03 1549.52 2311.77 1549.15 Q2309.52 1548.78 2307.11 1548.04 L2307.11 1543.34 Q2309.2 1544.47 2311.42 1545.03 Q2313.64 1545.58 2316.12 1545.58 Q2320.12 1545.58 2322.46 1543.48 Q2324.8 1541.37 2324.8 1537.76 Q2324.8 1534.15 2322.46 1532.04 Q2320.12 1529.94 2316.12 1529.94 Q2314.24 1529.94 2312.37 1530.35 Q2310.52 1530.77 2308.57 1531.65 L2308.57 1514.29 Z" fill="#000000" fill-rule="nonzero" fill-opacity="1" /><path clip-path="url(#clip660)" d="M2348.69 1517.37 Q2345.08 1517.37 2343.25 1520.93 Q2341.44 1524.47 2341.44 1531.6 Q2341.44 1538.71 2343.25 1542.27 Q2345.08 1545.82 2348.69 1545.82 Q2352.32 1545.82 2354.13 1542.27 Q2355.96 1538.71 2355.96 1531.6 Q2355.96 1524.47 2354.13 1520.93 Q2352.32 1517.37 2348.69 1517.37 M2348.69 1513.66 Q2354.5 1513.66 2357.55 1518.27 Q2360.63 1522.85 2360.63 1531.6 Q2360.63 1540.33 2357.55 1544.94 Q2354.5 1549.52 2348.69 1549.52 Q2342.88 1549.52 2339.8 1544.94 Q2336.74 1540.33 2336.74 1531.6 Q2336.74 1522.85 2339.8 1518.27 Q2342.88 1513.66 2348.69 1513.66 Z" fill="#000000" fill-rule="nonzero" fill-opacity="1" /><polyline clip-path="url(#clip662)" style="stroke:#000000; stroke-linecap:round; stroke-linejoin:round; stroke-width:2; stroke-opacity:0.1; fill:none" points="169.121,1311.52 2352.76,1311.52 "/>
<polyline clip-path="url(#clip662)" style="stroke:#000000; stroke-linecap:round; stroke-linejoin:round; stroke-width:2; stroke-opacity:0.1; fill:none" points="169.121,1095.78 2352.76,1095.78 "/>
<polyline clip-path="url(#clip662)" style="stroke:#000000; stroke-linecap:round; stroke-linejoin:round; stroke-width:2; stroke-opacity:0.1; fill:none" points="169.121,880.044 2352.76,880.044 "/>
<polyline clip-path="url(#clip662)" style="stroke:#000000; stroke-linecap:round; stroke-linejoin:round; stroke-width:2; stroke-opacity:0.1; fill:none" points="169.121,664.303 2352.76,664.303 "/>
<polyline clip-path="url(#clip662)" style="stroke:#000000; stroke-linecap:round; stroke-linejoin:round; stroke-width:2; stroke-opacity:0.1; fill:none" points="169.121,448.562 2352.76,448.562 "/>
<polyline clip-path="url(#clip662)" style="stroke:#000000; stroke-linecap:round; stroke-linejoin:round; stroke-width:2; stroke-opacity:0.1; fill:none" points="169.121,232.822 2352.76,232.822 "/>
<polyline clip-path="url(#clip660)" style="stroke:#000000; stroke-linecap:round; stroke-linejoin:round; stroke-width:4; stroke-opacity:1; fill:none" points="169.121,1486.45 169.121,47.2441 "/>
<polyline clip-path="url(#clip660)" style="stroke:#000000; stroke-linecap:round; stroke-linejoin:round; stroke-width:4; stroke-opacity:1; fill:none" points="169.121,1311.52 188.019,1311.52 "/>
<polyline clip-path="url(#clip660)" style="stroke:#000000; stroke-linecap:round; stroke-linejoin:round; stroke-width:4; stroke-opacity:1; fill:none" points="169.121,1095.78 188.019,1095.78 "/>
<polyline clip-path="url(#clip660)" style="stroke:#000000; stroke-linecap:round; stroke-linejoin:round; stroke-width:4; stroke-opacity:1; fill:none" points="169.121,880.044 188.019,880.044 "/>
<polyline clip-path="url(#clip660)" style="stroke:#000000; stroke-linecap:round; stroke-linejoin:round; stroke-width:4; stroke-opacity:1; fill:none" points="169.121,664.303 188.019,664.303 "/>
<polyline clip-path="url(#clip660)" style="stroke:#000000; stroke-linecap:round; stroke-linejoin:round; stroke-width:4; stroke-opacity:1; fill:none" points="169.121,448.562 188.019,448.562 "/>
<polyline clip-path="url(#clip660)" style="stroke:#000000; stroke-linecap:round; stroke-linejoin:round; stroke-width:4; stroke-opacity:1; fill:none" points="169.121,232.822 188.019,232.822 "/>
<path clip-path="url(#clip660)" d="M51.6634 1324.87 L59.3023 1324.87 L59.3023 1298.5 L50.9921 1300.17 L50.9921 1295.91 L59.256 1294.24 L63.9319 1294.24 L63.9319 1324.87 L71.5707 1324.87 L71.5707 1328.8 L51.6634 1328.8 L51.6634 1324.87 Z" fill="#000000" fill-rule="nonzero" fill-opacity="1" /><path clip-path="url(#clip660)" d="M79.8346 1294.24 L102.057 1294.24 L102.057 1296.24 L89.5104 1328.8 L84.6262 1328.8 L96.4317 1298.18 L79.8346 1298.18 L79.8346 1294.24 Z" fill="#000000" fill-rule="nonzero" fill-opacity="1" /><path clip-path="url(#clip660)" d="M121.177 1297.32 Q117.566 1297.32 115.737 1300.89 Q113.932 1304.43 113.932 1311.56 Q113.932 1318.67 115.737 1322.23 Q117.566 1325.77 121.177 1325.77 Q124.811 1325.77 126.617 1322.23 Q128.445 1318.67 128.445 1311.56 Q128.445 1304.43 126.617 1300.89 Q124.811 1297.32 121.177 1297.32 M121.177 1293.62 Q126.987 1293.62 130.043 1298.23 Q133.121 1302.81 133.121 1311.56 Q133.121 1320.29 130.043 1324.89 Q126.987 1329.48 121.177 1329.48 Q115.367 1329.48 112.288 1324.89 Q109.233 1320.29 109.233 1311.56 Q109.233 1302.81 112.288 1298.23 Q115.367 1293.62 121.177 1293.62 Z" fill="#000000" fill-rule="nonzero" fill-opacity="1" /><path clip-path="url(#clip660)" d="M52.6588 1109.13 L60.2976 1109.13 L60.2976 1082.76 L51.9875 1084.43 L51.9875 1080.17 L60.2513 1078.5 L64.9272 1078.5 L64.9272 1109.13 L72.5661 1109.13 L72.5661 1113.06 L52.6588 1113.06 L52.6588 1109.13 Z" fill="#000000" fill-rule="nonzero" fill-opacity="1" /><path clip-path="url(#clip660)" d="M80.8299 1078.5 L103.052 1078.5 L103.052 1080.5 L90.5058 1113.06 L85.6216 1113.06 L97.4271 1082.44 L80.8299 1082.44 L80.8299 1078.5 Z" fill="#000000" fill-rule="nonzero" fill-opacity="1" /><path clip-path="url(#clip660)" d="M112.219 1078.5 L130.575 1078.5 L130.575 1082.44 L116.501 1082.44 L116.501 1090.91 Q117.52 1090.56 118.538 1090.4 Q119.557 1090.22 120.575 1090.22 Q126.362 1090.22 129.742 1093.39 Q133.121 1096.56 133.121 1101.98 Q133.121 1107.56 129.649 1110.66 Q126.177 1113.74 119.857 1113.74 Q117.682 1113.74 115.413 1113.37 Q113.168 1112.99 110.76 1112.25 L110.76 1107.56 Q112.844 1108.69 115.066 1109.24 Q117.288 1109.8 119.765 1109.8 Q123.77 1109.8 126.107 1107.69 Q128.445 1105.59 128.445 1101.98 Q128.445 1098.37 126.107 1096.26 Q123.77 1094.15 119.765 1094.15 Q117.89 1094.15 116.015 1094.57 Q114.163 1094.99 112.219 1095.87 L112.219 1078.5 Z" fill="#000000" fill-rule="nonzero" fill-opacity="1" /><path clip-path="url(#clip660)" d="M51.6634 893.388 L59.3023 893.388 L59.3023 867.023 L50.9921 868.689 L50.9921 864.43 L59.256 862.764 L63.9319 862.764 L63.9319 893.388 L71.5707 893.388 L71.5707 897.324 L51.6634 897.324 L51.6634 893.388 Z" fill="#000000" fill-rule="nonzero" fill-opacity="1" /><path clip-path="url(#clip660)" d="M91.0151 880.912 Q87.6817 880.912 85.7605 882.694 Q83.8623 884.476 83.8623 887.601 Q83.8623 890.726 85.7605 892.509 Q87.6817 894.291 91.0151 894.291 Q94.3484 894.291 96.2697 892.509 Q98.1909 890.703 98.1909 887.601 Q98.1909 884.476 96.2697 882.694 Q94.3715 880.912 91.0151 880.912 M86.3392 878.921 Q83.3299 878.18 81.6401 876.12 Q79.9735 874.06 79.9735 871.097 Q79.9735 866.953 82.9133 864.546 Q85.8762 862.139 91.0151 862.139 Q96.1771 862.139 99.1169 864.546 Q102.057 866.953 102.057 871.097 Q102.057 874.06 100.367 876.12 Q98.7002 878.18 95.7141 878.921 Q99.0937 879.708 100.969 882 Q102.867 884.291 102.867 887.601 Q102.867 892.625 99.7882 895.31 Q96.7326 897.995 91.0151 897.995 Q85.2975 897.995 82.2188 895.31 Q79.1633 892.625 79.1633 887.601 Q79.1633 884.291 81.0614 882 Q82.9595 879.708 86.3392 878.921 M84.6262 871.537 Q84.6262 874.222 86.2929 875.726 Q87.9827 877.231 91.0151 877.231 Q94.0243 877.231 95.7141 875.726 Q97.4271 874.222 97.4271 871.537 Q97.4271 868.852 95.7141 867.347 Q94.0243 865.842 91.0151 865.842 Q87.9827 865.842 86.2929 867.347 Q84.6262 868.852 84.6262 871.537 Z" fill="#000000" fill-rule="nonzero" fill-opacity="1" /><path clip-path="url(#clip660)" d="M121.177 865.842 Q117.566 865.842 115.737 869.407 Q113.932 872.949 113.932 880.078 Q113.932 887.185 115.737 890.75 Q117.566 894.291 121.177 894.291 Q124.811 894.291 126.617 890.75 Q128.445 887.185 128.445 880.078 Q128.445 872.949 126.617 869.407 Q124.811 865.842 121.177 865.842 M121.177 862.139 Q126.987 862.139 130.043 866.745 Q133.121 871.328 133.121 880.078 Q133.121 888.805 130.043 893.412 Q126.987 897.995 121.177 897.995 Q115.367 897.995 112.288 893.412 Q109.233 888.805 109.233 880.078 Q109.233 871.328 112.288 866.745 Q115.367 862.139 121.177 862.139 Z" fill="#000000" fill-rule="nonzero" fill-opacity="1" /><path clip-path="url(#clip660)" d="M52.6588 677.648 L60.2976 677.648 L60.2976 651.282 L51.9875 652.949 L51.9875 648.69 L60.2513 647.023 L64.9272 647.023 L64.9272 677.648 L72.5661 677.648 L72.5661 681.583 L52.6588 681.583 L52.6588 677.648 Z" fill="#000000" fill-rule="nonzero" fill-opacity="1" /><path clip-path="url(#clip660)" d="M92.0104 665.171 Q88.6771 665.171 86.7558 666.953 Q84.8577 668.736 84.8577 671.861 Q84.8577 674.986 86.7558 676.768 Q88.6771 678.551 92.0104 678.551 Q95.3437 678.551 97.265 676.768 Q99.1863 674.963 99.1863 671.861 Q99.1863 668.736 97.265 666.953 Q95.3669 665.171 92.0104 665.171 M87.3345 663.18 Q84.3253 662.439 82.6355 660.379 Q80.9688 658.319 80.9688 655.356 Q80.9688 651.213 83.9086 648.805 Q86.8716 646.398 92.0104 646.398 Q97.1724 646.398 100.112 648.805 Q103.052 651.213 103.052 655.356 Q103.052 658.319 101.362 660.379 Q99.6956 662.439 96.7095 663.18 Q100.089 663.967 101.964 666.259 Q103.862 668.551 103.862 671.861 Q103.862 676.884 100.784 679.569 Q97.728 682.254 92.0104 682.254 Q86.2929 682.254 83.2142 679.569 Q80.1586 676.884 80.1586 671.861 Q80.1586 668.551 82.0568 666.259 Q83.9549 663.967 87.3345 663.18 M85.6216 655.796 Q85.6216 658.481 87.2882 659.986 Q88.978 661.49 92.0104 661.49 Q95.0197 661.49 96.7095 659.986 Q98.4224 658.481 98.4224 655.796 Q98.4224 653.111 96.7095 651.606 Q95.0197 650.102 92.0104 650.102 Q88.978 650.102 87.2882 651.606 Q85.6216 653.111 85.6216 655.796 Z" fill="#000000" fill-rule="nonzero" fill-opacity="1" /><path clip-path="url(#clip660)" d="M112.219 647.023 L130.575 647.023 L130.575 650.958 L116.501 650.958 L116.501 659.43 Q117.52 659.083 118.538 658.921 Q119.557 658.736 120.575 658.736 Q126.362 658.736 129.742 661.907 Q133.121 665.078 133.121 670.495 Q133.121 676.074 129.649 679.176 Q126.177 682.254 119.857 682.254 Q117.682 682.254 115.413 681.884 Q113.168 681.513 110.76 680.773 L110.76 676.074 Q112.844 677.208 115.066 677.763 Q117.288 678.319 119.765 678.319 Q123.77 678.319 126.107 676.213 Q128.445 674.106 128.445 670.495 Q128.445 666.884 126.107 664.777 Q123.77 662.671 119.765 662.671 Q117.89 662.671 116.015 663.088 Q114.163 663.504 112.219 664.384 L112.219 647.023 Z" fill="#000000" fill-rule="nonzero" fill-opacity="1" /><path clip-path="url(#clip660)" d="M51.6634 461.907 L59.3023 461.907 L59.3023 435.541 L50.9921 437.208 L50.9921 432.949 L59.256 431.282 L63.9319 431.282 L63.9319 461.907 L71.5707 461.907 L71.5707 465.842 L51.6634 465.842 L51.6634 461.907 Z" fill="#000000" fill-rule="nonzero" fill-opacity="1" /><path clip-path="url(#clip660)" d="M81.154 465.125 L81.154 460.865 Q82.9133 461.699 84.7188 462.139 Q86.5243 462.578 88.2604 462.578 Q92.89 462.578 95.3206 459.477 Q97.7743 456.352 98.1215 450.009 Q96.7789 452 94.7187 453.065 Q92.6586 454.129 90.1586 454.129 Q84.9734 454.129 81.941 451.004 Q78.9318 447.856 78.9318 442.416 Q78.9318 437.092 82.0799 433.875 Q85.2281 430.657 90.4595 430.657 Q96.4548 430.657 99.603 435.264 Q102.774 439.847 102.774 448.597 Q102.774 456.768 98.8854 461.652 Q95.0197 466.514 88.4688 466.514 Q86.7095 466.514 84.904 466.166 Q83.0984 465.819 81.154 465.125 M90.4595 450.472 Q93.6076 450.472 95.4363 448.319 Q97.2882 446.166 97.2882 442.416 Q97.2882 438.69 95.4363 436.537 Q93.6076 434.361 90.4595 434.361 Q87.3114 434.361 85.4595 436.537 Q83.6308 438.69 83.6308 442.416 Q83.6308 446.166 85.4595 448.319 Q87.3114 450.472 90.4595 450.472 Z" fill="#000000" fill-rule="nonzero" fill-opacity="1" /><path clip-path="url(#clip660)" d="M121.177 434.361 Q117.566 434.361 115.737 437.926 Q113.932 441.467 113.932 448.597 Q113.932 455.703 115.737 459.268 Q117.566 462.81 121.177 462.81 Q124.811 462.81 126.617 459.268 Q128.445 455.703 128.445 448.597 Q128.445 441.467 126.617 437.926 Q124.811 434.361 121.177 434.361 M121.177 430.657 Q126.987 430.657 130.043 435.264 Q133.121 439.847 133.121 448.597 Q133.121 457.324 130.043 461.93 Q126.987 466.514 121.177 466.514 Q115.367 466.514 112.288 461.93 Q109.233 457.324 109.233 448.597 Q109.233 439.847 112.288 435.264 Q115.367 430.657 121.177 430.657 Z" fill="#000000" fill-rule="nonzero" fill-opacity="1" /><path clip-path="url(#clip660)" d="M52.6588 246.166 L60.2976 246.166 L60.2976 219.801 L51.9875 221.467 L51.9875 217.208 L60.2513 215.542 L64.9272 215.542 L64.9272 246.166 L72.5661 246.166 L72.5661 250.102 L52.6588 250.102 L52.6588 246.166 Z" fill="#000000" fill-rule="nonzero" fill-opacity="1" /><path clip-path="url(#clip660)" d="M82.1494 249.384 L82.1494 245.125 Q83.9086 245.958 85.7142 246.398 Q87.5197 246.838 89.2558 246.838 Q93.8854 246.838 96.316 243.736 Q98.7696 240.611 99.1169 234.268 Q97.7743 236.259 95.7141 237.324 Q93.6539 238.389 91.1539 238.389 Q85.9688 238.389 82.9364 235.264 Q79.9272 232.116 79.9272 226.676 Q79.9272 221.352 83.0753 218.134 Q86.2234 214.917 91.4549 214.917 Q97.4502 214.917 100.598 219.523 Q103.77 224.106 103.77 232.856 Q103.77 241.028 99.8808 245.912 Q96.015 250.773 89.4641 250.773 Q87.7049 250.773 85.8993 250.426 Q84.0938 250.078 82.1494 249.384 M91.4549 234.731 Q94.603 234.731 96.4317 232.578 Q98.2835 230.426 98.2835 226.676 Q98.2835 222.949 96.4317 220.796 Q94.603 218.62 91.4549 218.62 Q88.3067 218.62 86.4549 220.796 Q84.6262 222.949 84.6262 226.676 Q84.6262 230.426 86.4549 232.578 Q88.3067 234.731 91.4549 234.731 Z" fill="#000000" fill-rule="nonzero" fill-opacity="1" /><path clip-path="url(#clip660)" d="M112.219 215.542 L130.575 215.542 L130.575 219.477 L116.501 219.477 L116.501 227.949 Q117.52 227.602 118.538 227.44 Q119.557 227.254 120.575 227.254 Q126.362 227.254 129.742 230.426 Q133.121 233.597 133.121 239.014 Q133.121 244.592 129.649 247.694 Q126.177 250.773 119.857 250.773 Q117.682 250.773 115.413 250.402 Q113.168 250.032 110.76 249.291 L110.76 244.592 Q112.844 245.727 115.066 246.282 Q117.288 246.838 119.765 246.838 Q123.77 246.838 126.107 244.731 Q128.445 242.625 128.445 239.014 Q128.445 235.403 126.107 233.296 Q123.77 231.19 119.765 231.19 Q117.89 231.19 116.015 231.606 Q114.163 232.023 112.219 232.903 L112.219 215.542 Z" fill="#000000" fill-rule="nonzero" fill-opacity="1" /><polyline clip-path="url(#clip662)" style="stroke:#009af9; stroke-linecap:round; stroke-linejoin:round; stroke-width:4; stroke-opacity:1; fill:none" points="230.922,1187.26 273.84,1182.08 316.757,1163.1 359.674,1264.06 402.592,1445.72 445.509,1388.33 488.426,1299.01 531.344,1278.3 574.261,1140.23 617.178,984.893 660.096,1024.59 703.013,913.268 745.93,801.514 788.848,755.346 831.765,776.056 874.682,603.896 917.6,672.932 960.517,559.021 1003.43,534.427 1046.35,461.075 1089.27,461.938 1132.19,385.998 1175.1,420.947 1218.02,392.038 1260.94,449.857 1303.86,457.624 1346.77,431.303 1389.69,475.746 1432.61,450.72 1475.53,395.058 1518.44,473.157 1561.36,300.996 1604.28,348.458 1647.19,264.319 1690.11,202.186 1733.03,311.351 1775.95,245.334 1818.86,105.103 1861.78,98.6308 1904.7,121.931 1947.62,194.42 1990.53,149.114 2033.45,240.157 2076.37,246.629 2119.29,293.229 2162.2,316.96 2205.12,312.646 2248.04,294.092 2290.95,339.397 "/>
<polyline clip-path="url(#clip662)" style="stroke:#e26f46; stroke-linecap:round; stroke-linejoin:round; stroke-width:4; stroke-opacity:1; fill:none" points="230.922,1066.5 273.84,1177.96 316.757,1172.78 359.674,1153.77 402.592,1254.86 445.509,1436.74 488.426,1379.28 531.344,1289.85 574.261,1269.12 617.178,1130.87 660.096,975.343 703.013,1015.09 745.93,903.629 788.848,791.735 831.765,745.51 874.682,766.246 917.6,593.871 960.517,662.994 1003.43,548.941 1046.35,524.316 1089.27,450.872 1132.19,451.736 1175.1,375.701 1218.02,410.695 1260.94,381.749 1303.86,439.64 1346.77,447.417 1389.69,421.063 1432.61,465.561 1475.53,440.504 1518.44,384.773 1561.36,462.969 1604.28,290.593 1647.19,338.115 1690.11,253.871 1733.03,191.661 1775.95,300.962 1818.86,234.863 1861.78,94.4563 1904.7,87.9763 1947.62,111.305 1990.53,183.885 2033.45,138.522 2076.37,229.679 2119.29,236.159 2162.2,282.817 2205.12,306.578 2248.04,302.258 2290.95,283.681 "/>
<path clip-path="url(#clip660)" d="M241.909 250.738 L655.086 250.738 L655.086 95.2176 L241.909 95.2176  Z" fill="#ffffff" fill-rule="evenodd" fill-opacity="1"/>
<polyline clip-path="url(#clip660)" style="stroke:#000000; stroke-linecap:round; stroke-linejoin:round; stroke-width:4; stroke-opacity:1; fill:none" points="241.909,250.738 655.086,250.738 655.086,95.2176 241.909,95.2176 241.909,250.738 "/>
<polyline clip-path="url(#clip660)" style="stroke:#009af9; stroke-linecap:round; stroke-linejoin:round; stroke-width:4; stroke-opacity:1; fill:none" points="266.172,147.058 411.747,147.058 "/>
<path clip-path="url(#clip660)" d="M451.843 134.384 L445.501 151.583 L458.209 151.583 L451.843 134.384 M449.204 129.778 L454.505 129.778 L467.676 164.338 L462.815 164.338 L459.667 155.472 L444.089 155.472 L440.941 164.338 L436.01 164.338 L449.204 129.778 Z" fill="#000000" fill-rule="nonzero" fill-opacity="1" /><path clip-path="url(#clip660)" d="M490.362 139.407 L490.362 143.389 Q488.556 142.393 486.727 141.907 Q484.922 141.398 483.07 141.398 Q478.926 141.398 476.635 144.037 Q474.343 146.652 474.343 151.398 Q474.343 156.143 476.635 158.782 Q478.926 161.398 483.07 161.398 Q484.922 161.398 486.727 160.912 Q488.556 160.402 490.362 159.407 L490.362 163.342 Q488.579 164.176 486.658 164.592 Q484.76 165.009 482.607 165.009 Q476.751 165.009 473.301 161.328 Q469.852 157.648 469.852 151.398 Q469.852 145.055 473.325 141.421 Q476.82 137.787 482.885 137.787 Q484.852 137.787 486.727 138.203 Q488.602 138.597 490.362 139.407 Z" fill="#000000" fill-rule="nonzero" fill-opacity="1" /><path clip-path="url(#clip660)" d="M501.982 131.051 L501.982 138.412 L510.755 138.412 L510.755 141.722 L501.982 141.722 L501.982 155.796 Q501.982 158.967 502.838 159.87 Q503.718 160.773 506.38 160.773 L510.755 160.773 L510.755 164.338 L506.38 164.338 Q501.449 164.338 499.574 162.509 Q497.699 160.657 497.699 155.796 L497.699 141.722 L494.574 141.722 L494.574 138.412 L497.699 138.412 L497.699 131.051 L501.982 131.051 Z" fill="#000000" fill-rule="nonzero" fill-opacity="1" /><path clip-path="url(#clip660)" d="M515.917 154.106 L515.917 138.412 L520.176 138.412 L520.176 153.944 Q520.176 157.625 521.611 159.476 Q523.047 161.305 525.917 161.305 Q529.366 161.305 531.357 159.106 Q533.371 156.907 533.371 153.111 L533.371 138.412 L537.63 138.412 L537.63 164.338 L533.371 164.338 L533.371 160.356 Q531.82 162.717 529.759 163.875 Q527.722 165.009 525.014 165.009 Q520.547 165.009 518.232 162.231 Q515.917 159.453 515.917 154.106 M526.635 137.787 L526.635 137.787 Z" fill="#000000" fill-rule="nonzero" fill-opacity="1" /><path clip-path="url(#clip660)" d="M558.185 151.305 Q553.023 151.305 551.033 152.486 Q549.042 153.666 549.042 156.514 Q549.042 158.782 550.523 160.125 Q552.028 161.444 554.597 161.444 Q558.139 161.444 560.269 158.944 Q562.421 156.421 562.421 152.254 L562.421 151.305 L558.185 151.305 M566.681 149.546 L566.681 164.338 L562.421 164.338 L562.421 160.402 Q560.963 162.763 558.787 163.898 Q556.611 165.009 553.463 165.009 Q549.482 165.009 547.121 162.787 Q544.783 160.541 544.783 156.791 Q544.783 152.416 547.699 150.194 Q550.639 147.972 556.449 147.972 L562.421 147.972 L562.421 147.555 Q562.421 144.615 560.477 143.018 Q558.556 141.398 555.06 141.398 Q552.838 141.398 550.732 141.93 Q548.625 142.463 546.681 143.527 L546.681 139.592 Q549.019 138.69 551.218 138.25 Q553.417 137.787 555.5 137.787 Q561.125 137.787 563.903 140.703 Q566.681 143.62 566.681 149.546 Z" fill="#000000" fill-rule="nonzero" fill-opacity="1" /><path clip-path="url(#clip660)" d="M575.454 128.319 L579.713 128.319 L579.713 164.338 L575.454 164.338 L575.454 128.319 Z" fill="#000000" fill-rule="nonzero" fill-opacity="1" /><polyline clip-path="url(#clip660)" style="stroke:#e26f46; stroke-linecap:round; stroke-linejoin:round; stroke-width:4; stroke-opacity:1; fill:none" points="266.172,198.898 411.747,198.898 "/>
<path clip-path="url(#clip660)" d="M436.01 181.618 L455.871 181.618 L455.871 185.553 L440.686 185.553 L440.686 195.738 L454.39 195.738 L454.39 199.673 L440.686 199.673 L440.686 216.178 L436.01 216.178 L436.01 181.618 Z" fill="#000000" fill-rule="nonzero" fill-opacity="1" /><path clip-path="url(#clip660)" d="M471.45 193.238 Q468.024 193.238 466.033 195.923 Q464.042 198.585 464.042 203.238 Q464.042 207.891 466.01 210.576 Q468.001 213.238 471.45 213.238 Q474.852 213.238 476.843 210.553 Q478.834 207.867 478.834 203.238 Q478.834 198.631 476.843 195.946 Q474.852 193.238 471.45 193.238 M471.45 189.627 Q477.005 189.627 480.176 193.238 Q483.348 196.849 483.348 203.238 Q483.348 209.604 480.176 213.238 Q477.005 216.849 471.45 216.849 Q465.871 216.849 462.7 213.238 Q459.552 209.604 459.552 203.238 Q459.552 196.849 462.7 193.238 Q465.871 189.627 471.45 189.627 Z" fill="#000000" fill-rule="nonzero" fill-opacity="1" /><path clip-path="url(#clip660)" d="M505.431 194.233 Q504.713 193.817 503.857 193.631 Q503.024 193.423 502.005 193.423 Q498.394 193.423 496.449 195.784 Q494.528 198.122 494.528 202.52 L494.528 216.178 L490.246 216.178 L490.246 190.252 L494.528 190.252 L494.528 194.28 Q495.871 191.918 498.024 190.784 Q500.176 189.627 503.255 189.627 Q503.695 189.627 504.227 189.696 Q504.76 189.743 505.408 189.858 L505.431 194.233 Z" fill="#000000" fill-rule="nonzero" fill-opacity="1" /><path clip-path="url(#clip660)" d="M531.033 202.15 L531.033 204.233 L511.449 204.233 Q511.727 208.631 514.088 210.946 Q516.473 213.238 520.709 213.238 Q523.162 213.238 525.454 212.636 Q527.769 212.034 530.037 210.83 L530.037 214.858 Q527.746 215.83 525.338 216.34 Q522.931 216.849 520.454 216.849 Q514.25 216.849 510.616 213.238 Q507.005 209.627 507.005 203.469 Q507.005 197.104 510.431 193.377 Q513.88 189.627 519.713 189.627 Q524.945 189.627 527.977 193.006 Q531.033 196.363 531.033 202.15 M526.773 200.9 Q526.727 197.405 524.806 195.321 Q522.908 193.238 519.76 193.238 Q516.195 193.238 514.042 195.252 Q511.912 197.266 511.588 200.923 L526.773 200.9 Z" fill="#000000" fill-rule="nonzero" fill-opacity="1" /><path clip-path="url(#clip660)" d="M556.681 191.247 L556.681 195.229 Q554.875 194.233 553.046 193.747 Q551.241 193.238 549.389 193.238 Q545.246 193.238 542.954 195.877 Q540.662 198.492 540.662 203.238 Q540.662 207.983 542.954 210.622 Q545.246 213.238 549.389 213.238 Q551.241 213.238 553.046 212.752 Q554.875 212.242 556.681 211.247 L556.681 215.182 Q554.898 216.016 552.977 216.432 Q551.079 216.849 548.926 216.849 Q543.07 216.849 539.621 213.168 Q536.171 209.488 536.171 203.238 Q536.171 196.895 539.644 193.261 Q543.139 189.627 549.204 189.627 Q551.171 189.627 553.046 190.043 Q554.921 190.437 556.681 191.247 Z" fill="#000000" fill-rule="nonzero" fill-opacity="1" /><path clip-path="url(#clip660)" d="M575.87 203.145 Q570.708 203.145 568.718 204.326 Q566.727 205.506 566.727 208.354 Q566.727 210.622 568.208 211.965 Q569.713 213.284 572.282 213.284 Q575.824 213.284 577.954 210.784 Q580.106 208.261 580.106 204.094 L580.106 203.145 L575.87 203.145 M584.366 201.386 L584.366 216.178 L580.106 216.178 L580.106 212.242 Q578.648 214.603 576.472 215.738 Q574.296 216.849 571.148 216.849 Q567.167 216.849 564.806 214.627 Q562.468 212.381 562.468 208.631 Q562.468 204.256 565.384 202.034 Q568.324 199.812 574.134 199.812 L580.106 199.812 L580.106 199.395 Q580.106 196.455 578.162 194.858 Q576.241 193.238 572.745 193.238 Q570.523 193.238 568.417 193.77 Q566.31 194.303 564.366 195.367 L564.366 191.432 Q566.704 190.53 568.903 190.09 Q571.102 189.627 573.185 189.627 Q578.81 189.627 581.588 192.543 Q584.366 195.46 584.366 201.386 Z" fill="#000000" fill-rule="nonzero" fill-opacity="1" /><path clip-path="url(#clip660)" d="M609.666 191.016 L609.666 195.043 Q607.861 194.117 605.916 193.655 Q603.972 193.192 601.889 193.192 Q598.717 193.192 597.12 194.164 Q595.546 195.136 595.546 197.08 Q595.546 198.562 596.68 199.418 Q597.815 200.252 601.241 201.016 L602.699 201.34 Q607.236 202.312 609.134 204.094 Q611.055 205.854 611.055 209.025 Q611.055 212.636 608.185 214.742 Q605.338 216.849 600.338 216.849 Q598.254 216.849 595.986 216.432 Q593.741 216.039 591.241 215.228 L591.241 210.83 Q593.602 212.057 595.893 212.682 Q598.185 213.284 600.43 213.284 Q603.44 213.284 605.06 212.266 Q606.68 211.224 606.68 209.349 Q606.68 207.613 605.5 206.687 Q604.342 205.761 600.384 204.904 L598.903 204.557 Q594.944 203.724 593.185 202.011 Q591.426 200.275 591.426 197.266 Q591.426 193.608 594.018 191.618 Q596.611 189.627 601.379 189.627 Q603.741 189.627 605.824 189.974 Q607.907 190.321 609.666 191.016 Z" fill="#000000" fill-rule="nonzero" fill-opacity="1" /><path clip-path="url(#clip660)" d="M622.051 182.891 L622.051 190.252 L630.824 190.252 L630.824 193.562 L622.051 193.562 L622.051 207.636 Q622.051 210.807 622.907 211.71 Q623.787 212.613 626.449 212.613 L630.824 212.613 L630.824 216.178 L626.449 216.178 Q621.518 216.178 619.643 214.349 Q617.768 212.497 617.768 207.636 L617.768 193.562 L614.643 193.562 L614.643 190.252 L617.768 190.252 L617.768 182.891 L622.051 182.891 Z" fill="#000000" fill-rule="nonzero" fill-opacity="1" /></svg>
