<?xml version="1.0" encoding="utf-8"?>
<svg xmlns="http://www.w3.org/2000/svg" xmlns:xlink="http://www.w3.org/1999/xlink" width="600" height="400" viewBox="0 0 2400 1600">
<defs>
  <clipPath id="clip510">
    <rect x="0" y="0" width="2400" height="1600"/>
  </clipPath>
</defs>
<path clip-path="url(#clip510)" d="M0 1600 L2400 1600 L2400 0 L0 0  Z" fill="#ffffff" fill-rule="evenodd" fill-opacity="1"/>
<defs>
  <clipPath id="clip511">
    <rect x="480" y="0" width="1681" height="1600"/>
  </clipPath>
</defs>
<path clip-path="url(#clip510)" d="M173.504 1489.49 L2352.76 1489.49 L2352.76 123.472 L173.504 123.472  Z" fill="#ffffff" fill-rule="evenodd" fill-opacity="1"/>
<defs>
  <clipPath id="clip512">
    <rect x="173" y="123" width="2180" height="1367"/>
  </clipPath>
</defs>
<polyline clip-path="url(#clip510)" style="stroke:#000000; stroke-linecap:round; stroke-linejoin:round; stroke-width:4; stroke-opacity:1; fill:none" points="173.504,1489.49 2352.76,1489.49 "/>
<path clip-path="url(#clip510)" d="M1185.01 1534.99 L1225.21 1534.99 L1225.21 1540.4 L1208.34 1540.4 L1208.34 1582.51 L1201.88 1582.51 L1201.88 1540.4 L1185.01 1540.4 L1185.01 1534.99 Z" fill="#000000" fill-rule="nonzero" fill-opacity="1" /><path clip-path="url(#clip510)" d="M1229.15 1546.86 L1235.01 1546.86 L1235.01 1582.51 L1229.15 1582.51 L1229.15 1546.86 M1229.15 1532.99 L1235.01 1532.99 L1235.01 1540.4 L1229.15 1540.4 L1229.15 1532.99 Z" fill="#000000" fill-rule="nonzero" fill-opacity="1" /><path clip-path="url(#clip510)" d="M1275.02 1553.71 Q1277.21 1549.76 1280.27 1547.88 Q1283.33 1546 1287.46 1546 Q1293.03 1546 1296.06 1549.92 Q1299.08 1553.8 1299.08 1561 L1299.08 1582.51 L1293.19 1582.51 L1293.19 1561.19 Q1293.19 1556.06 1291.38 1553.58 Q1289.56 1551.1 1285.84 1551.1 Q1281.29 1551.1 1278.65 1554.12 Q1276 1557.14 1276 1562.36 L1276 1582.51 L1270.12 1582.51 L1270.12 1561.19 Q1270.12 1556.03 1268.3 1553.58 Q1266.49 1551.1 1262.7 1551.1 Q1258.21 1551.1 1255.57 1554.15 Q1252.93 1557.18 1252.93 1562.36 L1252.93 1582.51 L1247.04 1582.51 L1247.04 1546.86 L1252.93 1546.86 L1252.93 1552.4 Q1254.93 1549.12 1257.74 1547.56 Q1260.54 1546 1264.39 1546 Q1268.27 1546 1270.98 1547.98 Q1273.71 1549.95 1275.02 1553.71 Z" fill="#000000" fill-rule="nonzero" fill-opacity="1" /><path clip-path="url(#clip510)" d="M1341.25 1563.22 L1341.25 1566.09 L1314.33 1566.09 Q1314.71 1572.14 1317.95 1575.32 Q1321.23 1578.47 1327.06 1578.47 Q1330.43 1578.47 1333.58 1577.64 Q1336.77 1576.81 1339.88 1575.16 L1339.88 1580.7 Q1336.73 1582.03 1333.42 1582.73 Q1330.11 1583.43 1326.71 1583.43 Q1318.18 1583.43 1313.18 1578.47 Q1308.22 1573.5 1308.22 1565.04 Q1308.22 1556.29 1312.93 1551.16 Q1317.67 1546 1325.69 1546 Q1332.88 1546 1337.05 1550.65 Q1341.25 1555.27 1341.25 1563.22 M1335.4 1561.51 Q1335.33 1556.7 1332.69 1553.83 Q1330.08 1550.97 1325.75 1550.97 Q1320.85 1550.97 1317.89 1553.74 Q1314.96 1556.51 1314.52 1561.54 L1335.4 1561.51 Z" fill="#000000" fill-rule="nonzero" fill-opacity="1" /><polyline clip-path="url(#clip510)" style="stroke:#000000; stroke-linecap:round; stroke-linejoin:round; stroke-width:4; stroke-opacity:1; fill:none" points="173.504,1489.49 173.504,123.472 "/>
<path clip-path="url(#clip510)" d="M45.0118 874.625 L62.8676 874.625 L62.8676 866.54 Q62.8676 862.053 60.5441 859.602 Q58.2206 857.151 53.9238 857.151 Q49.6588 857.151 47.3353 859.602 Q45.0118 862.053 45.0118 866.54 L45.0118 874.625 M39.7283 881.054 L39.7283 866.54 Q39.7283 858.551 43.3567 854.477 Q46.9533 850.372 53.9238 850.372 Q60.9579 850.372 64.5545 854.477 Q68.1511 858.551 68.1511 866.54 L68.1511 874.625 L87.2483 874.625 L87.2483 881.054 L39.7283 881.054 Z" fill="#000000" fill-rule="nonzero" fill-opacity="1" /><path clip-path="url(#clip510)" d="M57.0748 822.49 Q56.5019 823.476 56.2473 824.654 Q55.9608 825.8 55.9608 827.2 Q55.9608 832.166 59.2073 834.839 Q62.422 837.481 68.4694 837.481 L87.2483 837.481 L87.2483 843.369 L51.6003 843.369 L51.6003 837.481 L57.1385 837.481 Q53.8919 835.635 52.3324 832.675 Q50.7409 829.715 50.7409 825.482 Q50.7409 824.877 50.8364 824.145 Q50.9001 823.413 51.0592 822.522 L57.0748 822.49 Z" fill="#000000" fill-rule="nonzero" fill-opacity="1" /><path clip-path="url(#clip510)" d="M51.6003 816.347 L51.6003 810.49 L87.2483 810.49 L87.2483 816.347 L51.6003 816.347 M37.7231 816.347 L37.7231 810.49 L45.1391 810.49 L45.1391 816.347 L37.7231 816.347 Z" fill="#000000" fill-rule="nonzero" fill-opacity="1" /><path clip-path="url(#clip510)" d="M52.9689 772.583 L58.4434 772.583 Q57.0748 775.065 56.4064 777.58 Q55.7062 780.062 55.7062 782.609 Q55.7062 788.306 59.3346 791.457 Q62.9313 794.608 69.4561 794.608 Q75.981 794.608 79.6094 791.457 Q83.206 788.306 83.206 782.609 Q83.206 780.062 82.5376 777.58 Q81.8374 775.065 80.4688 772.583 L85.8796 772.583 Q87.0255 775.033 87.5984 777.675 Q88.1713 780.285 88.1713 783.245 Q88.1713 791.298 83.1105 796.04 Q78.0498 800.783 69.4561 800.783 Q60.7351 800.783 55.738 796.008 Q50.7409 791.202 50.7409 782.863 Q50.7409 780.158 51.3138 777.58 Q51.8549 775.002 52.9689 772.583 Z" fill="#000000" fill-rule="nonzero" fill-opacity="1" /><path clip-path="url(#clip510)" d="M67.9602 731.906 L70.8247 731.906 L70.8247 758.833 Q76.8722 758.451 80.055 755.204 Q83.206 751.926 83.206 746.101 Q83.206 742.727 82.3785 739.576 Q81.5509 736.394 79.8959 733.274 L85.434 733.274 Q86.7708 736.425 87.4711 739.736 Q88.1713 743.046 88.1713 746.451 Q88.1713 754.981 83.206 759.979 Q78.2408 764.944 69.7744 764.944 Q61.0215 764.944 55.8971 760.233 Q50.7409 755.491 50.7409 747.47 Q50.7409 740.277 55.3879 736.107 Q60.003 731.906 67.9602 731.906 M66.2414 737.762 Q61.4353 737.826 58.5707 740.468 Q55.7062 743.078 55.7062 747.406 Q55.7062 752.308 58.4753 755.268 Q61.2443 758.196 66.2732 758.642 L66.2414 737.762 Z" fill="#000000" fill-rule="nonzero" fill-opacity="1" /><path clip-path="url(#clip510)" d="M813.075 16.7545 L813.075 25.383 Q808.943 21.5346 804.244 19.6307 Q799.585 17.7268 794.319 17.7268 Q783.949 17.7268 778.439 24.0867 Q772.93 30.4061 772.93 42.3968 Q772.93 54.3469 778.439 60.7069 Q783.949 67.0263 794.319 67.0263 Q799.585 67.0263 804.244 65.1223 Q808.943 63.2184 813.075 59.3701 L813.075 67.9175 Q808.781 70.8341 803.96 72.2924 Q799.18 73.7508 793.833 73.7508 Q780.1 73.7508 772.201 65.3654 Q764.302 56.9395 764.302 42.3968 Q764.302 27.8135 772.201 19.4281 Q780.1 11.0023 793.833 11.0023 Q799.261 11.0023 804.041 12.4606 Q808.862 13.8784 813.075 16.7545 Z" fill="#000000" fill-rule="nonzero" fill-opacity="1" /><path clip-path="url(#clip510)" d="M842.97 32.4315 Q836.975 32.4315 833.491 37.1306 Q830.007 41.7891 830.007 49.9314 Q830.007 58.0738 833.451 62.7728 Q836.934 67.4314 842.97 67.4314 Q848.925 67.4314 852.409 62.7323 Q855.893 58.0333 855.893 49.9314 Q855.893 41.8701 852.409 37.1711 Q848.925 32.4315 842.97 32.4315 M842.97 26.1121 Q852.692 26.1121 858.242 32.4315 Q863.792 38.7509 863.792 49.9314 Q863.792 61.0714 858.242 67.4314 Q852.692 73.7508 842.97 73.7508 Q833.208 73.7508 827.658 67.4314 Q822.149 61.0714 822.149 49.9314 Q822.149 38.7509 827.658 32.4315 Q833.208 26.1121 842.97 26.1121 Z" fill="#000000" fill-rule="nonzero" fill-opacity="1" /><path clip-path="url(#clip510)" d="M913.861 45.1919 L913.861 72.576 L906.407 72.576 L906.407 45.4349 Q906.407 38.994 903.896 35.7938 Q901.384 32.5936 896.361 32.5936 Q890.325 32.5936 886.842 36.4419 Q883.358 40.2903 883.358 46.9338 L883.358 72.576 L875.864 72.576 L875.864 27.2059 L883.358 27.2059 L883.358 34.2544 Q886.031 30.163 889.637 28.1376 Q893.283 26.1121 898.022 26.1121 Q905.84 26.1121 909.851 30.9732 Q913.861 35.7938 913.861 45.1919 Z" fill="#000000" fill-rule="nonzero" fill-opacity="1" /><path clip-path="url(#clip510)" d="M961.378 28.9478 L961.378 35.9153 Q958.219 34.1734 955.018 33.3227 Q951.859 32.4315 948.618 32.4315 Q941.367 32.4315 937.356 37.0496 Q933.346 41.6271 933.346 49.9314 Q933.346 58.2358 937.356 62.8538 Q941.367 67.4314 948.618 67.4314 Q951.859 67.4314 955.018 66.5807 Q958.219 65.6895 961.378 63.9476 L961.378 70.8341 Q958.259 72.2924 954.897 73.0216 Q951.575 73.7508 947.808 73.7508 Q937.559 73.7508 931.523 67.3098 Q925.487 60.8689 925.487 49.9314 Q925.487 38.832 931.564 32.472 Q937.68 26.1121 948.294 26.1121 Q951.737 26.1121 955.018 26.8413 Q958.3 27.5299 961.378 28.9478 Z" fill="#000000" fill-rule="nonzero" fill-opacity="1" /><path clip-path="url(#clip510)" d="M994.96 49.7694 Q985.927 49.7694 982.443 51.8354 Q978.959 53.9013 978.959 58.8839 Q978.959 62.8538 981.552 65.2034 Q984.185 67.5124 988.681 67.5124 Q994.879 67.5124 998.606 63.1374 Q1002.37 58.7219 1002.37 51.4303 L1002.37 49.7694 L994.96 49.7694 M1009.83 46.6907 L1009.83 72.576 L1002.37 72.576 L1002.37 65.6895 Q999.821 69.8214 996.013 71.8063 Q992.206 73.7508 986.696 73.7508 Q979.729 73.7508 975.597 69.8619 Q971.505 65.9325 971.505 59.3701 Q971.505 51.7138 976.61 47.825 Q981.754 43.9361 991.922 43.9361 L1002.37 43.9361 L1002.37 43.2069 Q1002.37 38.0623 998.971 35.2672 Q995.608 32.4315 989.491 32.4315 Q985.603 32.4315 981.916 33.3632 Q978.23 34.295 974.827 36.1584 L974.827 29.2718 Q978.919 27.692 982.767 26.9223 Q986.615 26.1121 990.261 26.1121 Q1000.1 26.1121 1004.97 31.2163 Q1009.83 36.3204 1009.83 46.6907 Z" fill="#000000" fill-rule="nonzero" fill-opacity="1" /><path clip-path="url(#clip510)" d="M1019.83 27.2059 L1027.73 27.2059 L1041.91 65.2844 L1056.09 27.2059 L1063.99 27.2059 L1046.97 72.576 L1036.85 72.576 L1019.83 27.2059 Z" fill="#000000" fill-rule="nonzero" fill-opacity="1" /><path clip-path="url(#clip510)" d="M1113.08 48.0275 L1113.08 51.6733 L1078.81 51.6733 Q1079.3 59.3701 1083.43 63.421 Q1087.6 67.4314 1095.02 67.4314 Q1099.31 67.4314 1103.32 66.3781 Q1107.37 65.3249 1111.34 63.2184 L1111.34 70.267 Q1107.33 71.9684 1103.12 72.8596 Q1098.91 73.7508 1094.57 73.7508 Q1083.72 73.7508 1077.36 67.4314 Q1071.04 61.1119 1071.04 50.3365 Q1071.04 39.1965 1077.03 32.6746 Q1083.07 26.1121 1093.28 26.1121 Q1102.43 26.1121 1107.74 32.0264 Q1113.08 37.9003 1113.08 48.0275 M1105.63 45.84 Q1105.55 39.7232 1102.19 36.0774 Q1098.87 32.4315 1093.36 32.4315 Q1087.12 32.4315 1083.35 35.9558 Q1079.62 39.4801 1079.06 45.8805 L1105.63 45.84 Z" fill="#000000" fill-rule="nonzero" fill-opacity="1" /><path clip-path="url(#clip510)" d="M1193.25 63.9476 L1193.25 47.7034 L1179.88 47.7034 L1179.88 40.9789 L1201.35 40.9789 L1201.35 66.9452 Q1196.61 70.3075 1190.9 72.0494 Q1185.19 73.7508 1178.71 73.7508 Q1164.53 73.7508 1156.51 65.4869 Q1148.53 57.1826 1148.53 42.3968 Q1148.53 27.5705 1156.51 19.3066 Q1164.53 11.0023 1178.71 11.0023 Q1184.62 11.0023 1189.93 12.4606 Q1195.28 13.9189 1199.77 16.7545 L1199.77 25.464 Q1195.24 21.6156 1190.13 19.6712 Q1185.03 17.7268 1179.4 17.7268 Q1168.3 17.7268 1162.71 23.9246 Q1157.16 30.1225 1157.16 42.3968 Q1157.16 54.6305 1162.71 60.8284 Q1168.3 67.0263 1179.4 67.0263 Q1183.73 67.0263 1187.14 66.2971 Q1190.54 65.5274 1193.25 63.9476 Z" fill="#000000" fill-rule="nonzero" fill-opacity="1" /><path clip-path="url(#clip510)" d="M1242.27 34.1734 Q1241.01 33.4443 1239.51 33.1202 Q1238.05 32.7556 1236.27 32.7556 Q1229.95 32.7556 1226.55 36.8875 Q1223.19 40.9789 1223.19 48.6757 L1223.19 72.576 L1215.69 72.576 L1215.69 27.2059 L1223.19 27.2059 L1223.19 34.2544 Q1225.54 30.1225 1229.31 28.1376 Q1233.07 26.1121 1238.46 26.1121 Q1239.23 26.1121 1240.16 26.2337 Q1241.09 26.3147 1242.23 26.5172 L1242.27 34.1734 Z" fill="#000000" fill-rule="nonzero" fill-opacity="1" /><path clip-path="url(#clip510)" d="M1265.84 32.4315 Q1259.85 32.4315 1256.37 37.1306 Q1252.88 41.7891 1252.88 49.9314 Q1252.88 58.0738 1256.32 62.7728 Q1259.81 67.4314 1265.84 67.4314 Q1271.8 67.4314 1275.28 62.7323 Q1278.77 58.0333 1278.77 49.9314 Q1278.77 41.8701 1275.28 37.1711 Q1271.8 32.4315 1265.84 32.4315 M1265.84 26.1121 Q1275.57 26.1121 1281.12 32.4315 Q1286.67 38.7509 1286.67 49.9314 Q1286.67 61.0714 1281.12 67.4314 Q1275.57 73.7508 1265.84 73.7508 Q1256.08 73.7508 1250.53 67.4314 Q1245.02 61.0714 1245.02 49.9314 Q1245.02 38.7509 1250.53 32.4315 Q1256.08 26.1121 1265.84 26.1121 Z" fill="#000000" fill-rule="nonzero" fill-opacity="1" /><path clip-path="url(#clip510)" d="M1294.69 27.2059 L1302.14 27.2059 L1311.46 62.6108 L1320.73 27.2059 L1329.52 27.2059 L1338.84 62.6108 L1348.12 27.2059 L1355.57 27.2059 L1343.7 72.576 L1334.91 72.576 L1325.15 35.3887 L1315.35 72.576 L1306.56 72.576 L1294.69 27.2059 Z" fill="#000000" fill-rule="nonzero" fill-opacity="1" /><path clip-path="url(#clip510)" d="M1374.25 14.324 L1374.25 27.2059 L1389.6 27.2059 L1389.6 32.9987 L1374.25 32.9987 L1374.25 57.6282 Q1374.25 63.1779 1375.75 64.7578 Q1377.28 66.3376 1381.94 66.3376 L1389.6 66.3376 L1389.6 72.576 L1381.94 72.576 Q1373.31 72.576 1370.03 69.3758 Q1366.75 66.1351 1366.75 57.6282 L1366.75 32.9987 L1361.28 32.9987 L1361.28 27.2059 L1366.75 27.2059 L1366.75 14.324 L1374.25 14.324 Z" fill="#000000" fill-rule="nonzero" fill-opacity="1" /><path clip-path="url(#clip510)" d="M1437.12 45.1919 L1437.12 72.576 L1429.66 72.576 L1429.66 45.4349 Q1429.66 38.994 1427.15 35.7938 Q1424.64 32.5936 1419.62 32.5936 Q1413.58 32.5936 1410.1 36.4419 Q1406.61 40.2903 1406.61 46.9338 L1406.61 72.576 L1399.12 72.576 L1399.12 9.54393 L1406.61 9.54393 L1406.61 34.2544 Q1409.29 30.163 1412.89 28.1376 Q1416.54 26.1121 1421.28 26.1121 Q1429.1 26.1121 1433.11 30.9732 Q1437.12 35.7938 1437.12 45.1919 Z" fill="#000000" fill-rule="nonzero" fill-opacity="1" /><path clip-path="url(#clip510)" d="M1486.86 18.8205 L1486.86 41.5461 L1497.15 41.5461 Q1502.86 41.5461 1505.98 38.5889 Q1509.1 35.6318 1509.1 30.163 Q1509.1 24.7348 1505.98 21.7777 Q1502.86 18.8205 1497.15 18.8205 L1486.86 18.8205 M1478.68 12.096 L1497.15 12.096 Q1507.32 12.096 1512.5 16.714 Q1517.73 21.2916 1517.73 30.163 Q1517.73 39.1155 1512.5 43.6931 Q1507.32 48.2706 1497.15 48.2706 L1486.86 48.2706 L1486.86 72.576 L1478.68 72.576 L1478.68 12.096 Z" fill="#000000" fill-rule="nonzero" fill-opacity="1" /><path clip-path="url(#clip510)" d="M1545.28 49.7694 Q1536.24 49.7694 1532.76 51.8354 Q1529.27 53.9013 1529.27 58.8839 Q1529.27 62.8538 1531.87 65.2034 Q1534.5 67.5124 1539 67.5124 Q1545.19 67.5124 1548.92 63.1374 Q1552.69 58.7219 1552.69 51.4303 L1552.69 49.7694 L1545.28 49.7694 M1560.14 46.6907 L1560.14 72.576 L1552.69 72.576 L1552.69 65.6895 Q1550.14 69.8214 1546.33 71.8063 Q1542.52 73.7508 1537.01 73.7508 Q1530.04 73.7508 1525.91 69.8619 Q1521.82 65.9325 1521.82 59.3701 Q1521.82 51.7138 1526.92 47.825 Q1532.07 43.9361 1542.24 43.9361 L1552.69 43.9361 L1552.69 43.2069 Q1552.69 38.0623 1549.29 35.2672 Q1545.92 32.4315 1539.81 32.4315 Q1535.92 32.4315 1532.23 33.3632 Q1528.55 34.295 1525.14 36.1584 L1525.14 29.2718 Q1529.23 27.692 1533.08 26.9223 Q1536.93 26.1121 1540.58 26.1121 Q1550.42 26.1121 1555.28 31.2163 Q1560.14 36.3204 1560.14 46.6907 Z" fill="#000000" fill-rule="nonzero" fill-opacity="1" /><path clip-path="url(#clip510)" d="M1582.87 14.324 L1582.87 27.2059 L1598.22 27.2059 L1598.22 32.9987 L1582.87 32.9987 L1582.87 57.6282 Q1582.87 63.1779 1584.37 64.7578 Q1585.91 66.3376 1590.56 66.3376 L1598.22 66.3376 L1598.22 72.576 L1590.56 72.576 Q1581.94 72.576 1578.66 69.3758 Q1575.37 66.1351 1575.37 57.6282 L1575.37 32.9987 L1569.91 32.9987 L1569.91 27.2059 L1575.37 27.2059 L1575.37 14.324 L1582.87 14.324 Z" fill="#000000" fill-rule="nonzero" fill-opacity="1" /><path clip-path="url(#clip510)" d="M1615.4 14.324 L1615.4 27.2059 L1630.75 27.2059 L1630.75 32.9987 L1615.4 32.9987 L1615.4 57.6282 Q1615.4 63.1779 1616.9 64.7578 Q1618.43 66.3376 1623.09 66.3376 L1630.75 66.3376 L1630.75 72.576 L1623.09 72.576 Q1614.47 72.576 1611.18 69.3758 Q1607.9 66.1351 1607.9 57.6282 L1607.9 32.9987 L1602.43 32.9987 L1602.43 27.2059 L1607.9 27.2059 L1607.9 14.324 L1615.4 14.324 Z" fill="#000000" fill-rule="nonzero" fill-opacity="1" /><path clip-path="url(#clip510)" d="M1679.36 48.0275 L1679.36 51.6733 L1645.09 51.6733 Q1645.58 59.3701 1649.71 63.421 Q1653.88 67.4314 1661.29 67.4314 Q1665.59 67.4314 1669.6 66.3781 Q1673.65 65.3249 1677.62 63.2184 L1677.62 70.267 Q1673.61 71.9684 1669.4 72.8596 Q1665.18 73.7508 1660.85 73.7508 Q1649.99 73.7508 1643.63 67.4314 Q1637.31 61.1119 1637.31 50.3365 Q1637.31 39.1965 1643.31 32.6746 Q1649.34 26.1121 1659.55 26.1121 Q1668.71 26.1121 1674.01 32.0264 Q1679.36 37.9003 1679.36 48.0275 M1671.91 45.84 Q1671.83 39.7232 1668.46 36.0774 Q1665.14 32.4315 1659.63 32.4315 Q1653.39 32.4315 1649.63 35.9558 Q1645.9 39.4801 1645.33 45.8805 L1671.91 45.84 Z" fill="#000000" fill-rule="nonzero" fill-opacity="1" /><path clip-path="url(#clip510)" d="M1717.88 34.1734 Q1716.63 33.4443 1715.13 33.1202 Q1713.67 32.7556 1711.89 32.7556 Q1705.57 32.7556 1702.17 36.8875 Q1698.8 40.9789 1698.8 48.6757 L1698.8 72.576 L1691.31 72.576 L1691.31 27.2059 L1698.8 27.2059 L1698.8 34.2544 Q1701.15 30.1225 1704.92 28.1376 Q1708.69 26.1121 1714.08 26.1121 Q1714.85 26.1121 1715.78 26.2337 Q1716.71 26.3147 1717.84 26.5172 L1717.88 34.1734 Z" fill="#000000" fill-rule="nonzero" fill-opacity="1" /><path clip-path="url(#clip510)" d="M1761.96 45.1919 L1761.96 72.576 L1754.5 72.576 L1754.5 45.4349 Q1754.5 38.994 1751.99 35.7938 Q1749.48 32.5936 1744.46 32.5936 Q1738.42 32.5936 1734.94 36.4419 Q1731.46 40.2903 1731.46 46.9338 L1731.46 72.576 L1723.96 72.576 L1723.96 27.2059 L1731.46 27.2059 L1731.46 34.2544 Q1734.13 30.163 1737.73 28.1376 Q1741.38 26.1121 1746.12 26.1121 Q1753.94 26.1121 1757.95 30.9732 Q1761.96 35.7938 1761.96 45.1919 Z" fill="#000000" fill-rule="nonzero" fill-opacity="1" /><polyline clip-path="url(#clip512)" style="stroke:#009af9; stroke-linecap:round; stroke-linejoin:round; stroke-width:4; stroke-opacity:1; fill:none" points="235.181,1450.83 255.948,1321.31 276.714,1267.66 297.481,1226.49 318.248,1191.79 339.014,1161.21 359.781,1133.57 380.548,1108.15 401.314,1084.49 422.081,1062.27 442.848,1041.25 463.614,1021.26 484.381,1002.16 505.148,983.841 525.914,966.213 546.681,949.204 567.447,932.753 588.214,916.808 608.981,901.326 629.747,886.268 650.514,871.602 671.281,857.298 692.047,843.331 712.814,829.678 733.581,816.318 754.347,803.234 775.114,790.409 795.881,777.829 816.647,765.479 837.414,753.348 858.181,741.424 878.947,729.698 899.714,718.159 920.48,706.799 941.247,695.61 962.014,684.584 982.78,673.715 1003.55,662.996 1024.31,652.421 1045.08,641.983 1065.85,631.679 1086.61,621.503 1107.38,611.45 1128.15,601.517 1148.91,591.698 1169.68,581.99 1190.45,572.389 1211.21,562.892 1231.98,553.496 1252.75,544.197 1273.51,534.992 1294.28,525.879 1315.05,516.855 1335.81,507.917 1356.58,499.063 1377.35,490.291 1398.11,481.598 1418.88,472.983 1439.65,464.443 1460.41,455.976 1481.18,447.58 1501.95,439.254 1522.71,430.996 1543.48,422.805 1564.25,414.678 1585.01,406.614 1605.78,398.613 1626.55,390.671 1647.31,382.789 1668.08,374.965 1688.85,367.196 1709.61,359.484 1730.38,351.825 1751.15,344.219 1771.91,336.666 1792.68,329.163 1813.45,321.71 1834.21,314.306 1854.98,306.949 1875.75,299.64 1896.51,292.377 1917.28,285.159 1938.05,277.986 1958.81,270.856 1979.58,263.769 2000.35,256.724 2021.11,249.721 2041.88,242.758 2062.65,235.835 2083.41,228.951 2104.18,222.105 2124.95,215.298 2145.71,208.528 2166.48,201.795 2187.25,195.097 2208.01,188.436 2228.78,181.809 2249.55,175.216 2270.31,168.658 2291.08,162.133 "/>
</svg>
