<?xml version="1.0" encoding="utf-8"?>
<svg xmlns="http://www.w3.org/2000/svg" xmlns:xlink="http://www.w3.org/1999/xlink" width="600" height="400" viewBox="0 0 2400 1600">
<defs>
  <clipPath id="clip550">
    <rect x="0" y="0" width="2400" height="1600"/>
  </clipPath>
</defs>
<path clip-path="url(#clip550)" d="M0 1600 L2400 1600 L2400 0 L0 0  Z" fill="#ffffff" fill-rule="evenodd" fill-opacity="1"/>
<defs>
  <clipPath id="clip551">
    <rect x="480" y="0" width="1681" height="1600"/>
  </clipPath>
</defs>
<path clip-path="url(#clip550)" d="M173.504 1489.49 L2352.76 1489.49 L2352.76 123.472 L173.504 123.472  Z" fill="#ffffff" fill-rule="evenodd" fill-opacity="1"/>
<defs>
  <clipPath id="clip552">
    <rect x="173" y="123" width="2180" height="1367"/>
  </clipPath>
</defs>
<polyline clip-path="url(#clip550)" style="stroke:#000000; stroke-linecap:round; stroke-linejoin:round; stroke-width:4; stroke-opacity:1; fill:none" points="173.504,1489.49 2352.76,1489.49 "/>
<path clip-path="url(#clip550)" d="M1185.01 1534.99 L1225.21 1534.99 L1225.21 1540.4 L1208.34 1540.4 L1208.34 1582.51 L1201.88 1582.51 L1201.88 1540.4 L1185.01 1540.4 L1185.01 1534.99 Z" fill="#000000" fill-rule="nonzero" fill-opacity="1" /><path clip-path="url(#clip550)" d="M1229.15 1546.86 L1235.01 1546.86 L1235.01 1582.51 L1229.15 1582.51 L1229.15 1546.86 M1229.15 1532.99 L1235.01 1532.99 L1235.01 1540.4 L1229.15 1540.4 L1229.15 1532.99 Z" fill="#000000" fill-rule="nonzero" fill-opacity="1" /><path clip-path="url(#clip550)" d="M1275.02 1553.71 Q1277.21 1549.76 1280.27 1547.88 Q1283.33 1546 1287.46 1546 Q1293.03 1546 1296.06 1549.92 Q1299.08 1553.8 1299.08 1561 L1299.08 1582.51 L1293.19 1582.51 L1293.19 1561.19 Q1293.19 1556.06 1291.38 1553.58 Q1289.56 1551.1 1285.84 1551.1 Q1281.29 1551.1 1278.65 1554.12 Q1276 1557.14 1276 1562.36 L1276 1582.51 L1270.12 1582.51 L1270.12 1561.19 Q1270.12 1556.03 1268.3 1553.58 Q1266.49 1551.1 1262.7 1551.1 Q1258.21 1551.1 1255.57 1554.15 Q1252.93 1557.18 1252.93 1562.36 L1252.93 1582.51 L1247.04 1582.51 L1247.04 1546.86 L1252.93 1546.86 L1252.93 1552.4 Q1254.93 1549.12 1257.74 1547.56 Q1260.54 1546 1264.39 1546 Q1268.27 1546 1270.98 1547.98 Q1273.71 1549.95 1275.02 1553.71 Z" fill="#000000" fill-rule="nonzero" fill-opacity="1" /><path clip-path="url(#clip550)" d="M1341.25 1563.22 L1341.25 1566.09 L1314.33 1566.09 Q1314.71 1572.14 1317.95 1575.32 Q1321.23 1578.47 1327.06 1578.47 Q1330.43 1578.47 1333.58 1577.64 Q1336.77 1576.81 1339.88 1575.16 L1339.88 1580.7 Q1336.73 1582.03 1333.42 1582.73 Q1330.11 1583.43 1326.71 1583.43 Q1318.18 1583.43 1313.18 1578.47 Q1308.22 1573.5 1308.22 1565.04 Q1308.22 1556.29 1312.93 1551.16 Q1317.67 1546 1325.69 1546 Q1332.88 1546 1337.05 1550.65 Q1341.25 1555.27 1341.25 1563.22 M1335.4 1561.51 Q1335.33 1556.7 1332.69 1553.83 Q1330.08 1550.97 1325.75 1550.97 Q1320.85 1550.97 1317.89 1553.74 Q1314.96 1556.51 1314.52 1561.54 L1335.4 1561.51 Z" fill="#000000" fill-rule="nonzero" fill-opacity="1" /><polyline clip-path="url(#clip550)" style="stroke:#000000; stroke-linecap:round; stroke-linejoin:round; stroke-width:4; stroke-opacity:1; fill:none" points="173.504,1489.49 173.504,123.472 "/>
<path clip-path="url(#clip550)" d="M45.0118 874.625 L62.8676 874.625 L62.8676 866.54 Q62.8676 862.053 60.5441 859.602 Q58.2206 857.151 53.9238 857.151 Q49.6588 857.151 47.3353 859.602 Q45.0118 862.053 45.0118 866.54 L45.0118 874.625 M39.7283 881.054 L39.7283 866.54 Q39.7283 858.551 43.3567 854.477 Q46.9533 850.372 53.9238 850.372 Q60.9579 850.372 64.5545 854.477 Q68.1511 858.551 68.1511 866.54 L68.1511 874.625 L87.2483 874.625 L87.2483 881.054 L39.7283 881.054 Z" fill="#000000" fill-rule="nonzero" fill-opacity="1" /><path clip-path="url(#clip550)" d="M57.0748 822.49 Q56.5019 823.476 56.2473 824.654 Q55.9608 825.8 55.9608 827.2 Q55.9608 832.166 59.2073 834.839 Q62.422 837.481 68.4694 837.481 L87.2483 837.481 L87.2483 843.369 L51.6003 843.369 L51.6003 837.481 L57.1385 837.481 Q53.8919 835.635 52.3324 832.675 Q50.7409 829.715 50.7409 825.482 Q50.7409 824.877 50.8364 824.145 Q50.9001 823.413 51.0592 822.522 L57.0748 822.49 Z" fill="#000000" fill-rule="nonzero" fill-opacity="1" /><path clip-path="url(#clip550)" d="M51.6003 816.347 L51.6003 810.49 L87.2483 810.49 L87.2483 816.347 L51.6003 816.347 M37.7231 816.347 L37.7231 810.49 L45.1391 810.49 L45.1391 816.347 L37.7231 816.347 Z" fill="#000000" fill-rule="nonzero" fill-opacity="1" /><path clip-path="url(#clip550)" d="M52.9689 772.583 L58.4434 772.583 Q57.0748 775.065 56.4064 777.58 Q55.7062 780.062 55.7062 782.609 Q55.7062 788.306 59.3346 791.457 Q62.9313 794.608 69.4561 794.608 Q75.981 794.608 79.6094 791.457 Q83.206 788.306 83.206 782.609 Q83.206 780.062 82.5376 777.58 Q81.8374 775.065 80.4688 772.583 L85.8796 772.583 Q87.0255 775.033 87.5984 777.675 Q88.1713 780.285 88.1713 783.245 Q88.1713 791.298 83.1105 796.04 Q78.0498 800.783 69.4561 800.783 Q60.7351 800.783 55.738 796.008 Q50.7409 791.202 50.7409 782.863 Q50.7409 780.158 51.3138 777.58 Q51.8549 775.002 52.9689 772.583 Z" fill="#000000" fill-rule="nonzero" fill-opacity="1" /><path clip-path="url(#clip550)" d="M67.9602 731.906 L70.8247 731.906 L70.8247 758.833 Q76.8722 758.451 80.055 755.204 Q83.206 751.926 83.206 746.101 Q83.206 742.727 82.3785 739.576 Q81.5509 736.394 79.8959 733.274 L85.434 733.274 Q86.7708 736.425 87.4711 739.736 Q88.1713 743.046 88.1713 746.451 Q88.1713 754.981 83.206 759.979 Q78.2408 764.944 69.7744 764.944 Q61.0215 764.944 55.8971 760.233 Q50.7409 755.491 50.7409 747.47 Q50.7409 740.277 55.3879 736.107 Q60.003 731.906 67.9602 731.906 M66.2414 737.762 Q61.4353 737.826 58.5707 740.468 Q55.7062 743.078 55.7062 747.406 Q55.7062 752.308 58.4753 755.268 Q61.2443 758.196 66.2732 758.642 L66.2414 737.762 Z" fill="#000000" fill-rule="nonzero" fill-opacity="1" /><path clip-path="url(#clip550)" d="M837.481 16.7545 L837.481 25.383 Q833.349 21.5346 828.65 19.6307 Q823.992 17.7268 818.726 17.7268 Q808.355 17.7268 802.846 24.0867 Q797.337 30.4061 797.337 42.3968 Q797.337 54.3469 802.846 60.7069 Q808.355 67.0263 818.726 67.0263 Q823.992 67.0263 828.65 65.1223 Q833.349 63.2184 837.481 59.3701 L837.481 67.9175 Q833.187 70.8341 828.367 72.2924 Q823.587 73.7508 818.24 73.7508 Q804.507 73.7508 796.608 65.3654 Q788.708 56.9395 788.708 42.3968 Q788.708 27.8135 796.608 19.4281 Q804.507 11.0023 818.24 11.0023 Q823.668 11.0023 828.448 12.4606 Q833.268 13.8784 837.481 16.7545 Z" fill="#000000" fill-rule="nonzero" fill-opacity="1" /><path clip-path="url(#clip550)" d="M867.377 32.4315 Q861.382 32.4315 857.898 37.1306 Q854.414 41.7891 854.414 49.9314 Q854.414 58.0738 857.857 62.7728 Q861.341 67.4314 867.377 67.4314 Q873.332 67.4314 876.816 62.7323 Q880.299 58.0333 880.299 49.9314 Q880.299 41.8701 876.816 37.1711 Q873.332 32.4315 867.377 32.4315 M867.377 26.1121 Q877.099 26.1121 882.649 32.4315 Q888.199 38.7509 888.199 49.9314 Q888.199 61.0714 882.649 67.4314 Q877.099 73.7508 867.377 73.7508 Q857.614 73.7508 852.065 67.4314 Q846.555 61.0714 846.555 49.9314 Q846.555 38.7509 852.065 32.4315 Q857.614 26.1121 867.377 26.1121 Z" fill="#000000" fill-rule="nonzero" fill-opacity="1" /><path clip-path="url(#clip550)" d="M938.268 45.1919 L938.268 72.576 L930.814 72.576 L930.814 45.4349 Q930.814 38.994 928.303 35.7938 Q925.791 32.5936 920.768 32.5936 Q914.732 32.5936 911.248 36.4419 Q907.765 40.2903 907.765 46.9338 L907.765 72.576 L900.27 72.576 L900.27 27.2059 L907.765 27.2059 L907.765 34.2544 Q910.438 30.163 914.043 28.1376 Q917.689 26.1121 922.429 26.1121 Q930.247 26.1121 934.257 30.9732 Q938.268 35.7938 938.268 45.1919 Z" fill="#000000" fill-rule="nonzero" fill-opacity="1" /><path clip-path="url(#clip550)" d="M947.787 27.2059 L955.687 27.2059 L969.865 65.2844 L984.043 27.2059 L991.942 27.2059 L974.928 72.576 L964.801 72.576 L947.787 27.2059 Z" fill="#000000" fill-rule="nonzero" fill-opacity="1" /><path clip-path="url(#clip550)" d="M1041.04 48.0275 L1041.04 51.6733 L1006.77 51.6733 Q1007.25 59.3701 1011.39 63.421 Q1015.56 67.4314 1022.97 67.4314 Q1027.27 67.4314 1031.28 66.3781 Q1035.33 65.3249 1039.3 63.2184 L1039.3 70.267 Q1035.29 71.9684 1031.07 72.8596 Q1026.86 73.7508 1022.53 73.7508 Q1011.67 73.7508 1005.31 67.4314 Q998.991 61.1119 998.991 50.3365 Q998.991 39.1965 1004.99 32.6746 Q1011.02 26.1121 1021.23 26.1121 Q1030.39 26.1121 1035.69 32.0264 Q1041.04 37.9003 1041.04 48.0275 M1033.59 45.84 Q1033.5 39.7232 1030.14 36.0774 Q1026.82 32.4315 1021.31 32.4315 Q1015.07 32.4315 1011.31 35.9558 Q1007.58 39.4801 1007.01 45.8805 L1033.59 45.84 Z" fill="#000000" fill-rule="nonzero" fill-opacity="1" /><path clip-path="url(#clip550)" d="M1089.53 27.2059 L1073.12 49.2833 L1090.38 72.576 L1081.59 72.576 L1068.38 54.752 L1055.18 72.576 L1046.39 72.576 L1064.01 48.8377 L1047.89 27.2059 L1056.68 27.2059 L1068.71 43.369 L1080.74 27.2059 L1089.53 27.2059 Z" fill="#000000" fill-rule="nonzero" fill-opacity="1" /><path clip-path="url(#clip550)" d="M1168.85 63.9476 L1168.85 47.7034 L1155.48 47.7034 L1155.48 40.9789 L1176.95 40.9789 L1176.95 66.9452 Q1172.21 70.3075 1166.5 72.0494 Q1160.78 73.7508 1154.3 73.7508 Q1140.12 73.7508 1132.1 65.4869 Q1124.12 57.1826 1124.12 42.3968 Q1124.12 27.5705 1132.1 19.3066 Q1140.12 11.0023 1154.3 11.0023 Q1160.22 11.0023 1165.52 12.4606 Q1170.87 13.9189 1175.37 16.7545 L1175.37 25.464 Q1170.83 21.6156 1165.73 19.6712 Q1160.62 17.7268 1154.99 17.7268 Q1143.89 17.7268 1138.3 23.9246 Q1132.75 30.1225 1132.75 42.3968 Q1132.75 54.6305 1138.3 60.8284 Q1143.89 67.0263 1154.99 67.0263 Q1159.33 67.0263 1162.73 66.2971 Q1166.13 65.5274 1168.85 63.9476 Z" fill="#000000" fill-rule="nonzero" fill-opacity="1" /><path clip-path="url(#clip550)" d="M1217.86 34.1734 Q1216.61 33.4443 1215.11 33.1202 Q1213.65 32.7556 1211.87 32.7556 Q1205.55 32.7556 1202.14 36.8875 Q1198.78 40.9789 1198.78 48.6757 L1198.78 72.576 L1191.29 72.576 L1191.29 27.2059 L1198.78 27.2059 L1198.78 34.2544 Q1201.13 30.1225 1204.9 28.1376 Q1208.67 26.1121 1214.05 26.1121 Q1214.82 26.1121 1215.75 26.2337 Q1216.69 26.3147 1217.82 26.5172 L1217.86 34.1734 Z" fill="#000000" fill-rule="nonzero" fill-opacity="1" /><path clip-path="url(#clip550)" d="M1241.44 32.4315 Q1235.44 32.4315 1231.96 37.1306 Q1228.47 41.7891 1228.47 49.9314 Q1228.47 58.0738 1231.92 62.7728 Q1235.4 67.4314 1241.44 67.4314 Q1247.39 67.4314 1250.88 62.7323 Q1254.36 58.0333 1254.36 49.9314 Q1254.36 41.8701 1250.88 37.1711 Q1247.39 32.4315 1241.44 32.4315 M1241.44 26.1121 Q1251.16 26.1121 1256.71 32.4315 Q1262.26 38.7509 1262.26 49.9314 Q1262.26 61.0714 1256.71 67.4314 Q1251.16 73.7508 1241.44 73.7508 Q1231.67 73.7508 1226.13 67.4314 Q1220.62 61.0714 1220.62 49.9314 Q1220.62 38.7509 1226.13 32.4315 Q1231.67 26.1121 1241.44 26.1121 Z" fill="#000000" fill-rule="nonzero" fill-opacity="1" /><path clip-path="url(#clip550)" d="M1270.28 27.2059 L1277.73 27.2059 L1287.05 62.6108 L1296.33 27.2059 L1305.12 27.2059 L1314.43 62.6108 L1323.71 27.2059 L1331.17 27.2059 L1319.3 72.576 L1310.51 72.576 L1300.74 35.3887 L1290.94 72.576 L1282.15 72.576 L1270.28 27.2059 Z" fill="#000000" fill-rule="nonzero" fill-opacity="1" /><path clip-path="url(#clip550)" d="M1349.84 14.324 L1349.84 27.2059 L1365.19 27.2059 L1365.19 32.9987 L1349.84 32.9987 L1349.84 57.6282 Q1349.84 63.1779 1351.34 64.7578 Q1352.88 66.3376 1357.54 66.3376 L1365.19 66.3376 L1365.19 72.576 L1357.54 72.576 Q1348.91 72.576 1345.63 69.3758 Q1342.35 66.1351 1342.35 57.6282 L1342.35 32.9987 L1336.88 32.9987 L1336.88 27.2059 L1342.35 27.2059 L1342.35 14.324 L1349.84 14.324 Z" fill="#000000" fill-rule="nonzero" fill-opacity="1" /><path clip-path="url(#clip550)" d="M1412.71 45.1919 L1412.71 72.576 L1405.26 72.576 L1405.26 45.4349 Q1405.26 38.994 1402.74 35.7938 Q1400.23 32.5936 1395.21 32.5936 Q1389.17 32.5936 1385.69 36.4419 Q1382.21 40.2903 1382.21 46.9338 L1382.21 72.576 L1374.71 72.576 L1374.71 9.54393 L1382.21 9.54393 L1382.21 34.2544 Q1384.88 30.163 1388.49 28.1376 Q1392.13 26.1121 1396.87 26.1121 Q1404.69 26.1121 1408.7 30.9732 Q1412.71 35.7938 1412.71 45.1919 Z" fill="#000000" fill-rule="nonzero" fill-opacity="1" /><path clip-path="url(#clip550)" d="M1462.45 18.8205 L1462.45 41.5461 L1472.74 41.5461 Q1478.46 41.5461 1481.58 38.5889 Q1484.69 35.6318 1484.69 30.163 Q1484.69 24.7348 1481.58 21.7777 Q1478.46 18.8205 1472.74 18.8205 L1462.45 18.8205 M1454.27 12.096 L1472.74 12.096 Q1482.91 12.096 1488.1 16.714 Q1493.32 21.2916 1493.32 30.163 Q1493.32 39.1155 1488.1 43.6931 Q1482.91 48.2706 1472.74 48.2706 L1462.45 48.2706 L1462.45 72.576 L1454.27 72.576 L1454.27 12.096 Z" fill="#000000" fill-rule="nonzero" fill-opacity="1" /><path clip-path="url(#clip550)" d="M1520.87 49.7694 Q1511.84 49.7694 1508.35 51.8354 Q1504.87 53.9013 1504.87 58.8839 Q1504.87 62.8538 1507.46 65.2034 Q1510.09 67.5124 1514.59 67.5124 Q1520.79 67.5124 1524.51 63.1374 Q1528.28 58.7219 1528.28 51.4303 L1528.28 49.7694 L1520.87 49.7694 M1535.74 46.6907 L1535.74 72.576 L1528.28 72.576 L1528.28 65.6895 Q1525.73 69.8214 1521.92 71.8063 Q1518.11 73.7508 1512.61 73.7508 Q1505.64 73.7508 1501.51 69.8619 Q1497.41 65.9325 1497.41 59.3701 Q1497.41 51.7138 1502.52 47.825 Q1507.66 43.9361 1517.83 43.9361 L1528.28 43.9361 L1528.28 43.2069 Q1528.28 38.0623 1524.88 35.2672 Q1521.52 32.4315 1515.4 32.4315 Q1511.51 32.4315 1507.82 33.3632 Q1504.14 34.295 1500.74 36.1584 L1500.74 29.2718 Q1504.83 27.692 1508.68 26.9223 Q1512.52 26.1121 1516.17 26.1121 Q1526.01 26.1121 1530.87 31.2163 Q1535.74 36.3204 1535.74 46.6907 Z" fill="#000000" fill-rule="nonzero" fill-opacity="1" /><path clip-path="url(#clip550)" d="M1558.46 14.324 L1558.46 27.2059 L1573.81 27.2059 L1573.81 32.9987 L1558.46 32.9987 L1558.46 57.6282 Q1558.46 63.1779 1559.96 64.7578 Q1561.5 66.3376 1566.16 66.3376 L1573.81 66.3376 L1573.81 72.576 L1566.16 72.576 Q1557.53 72.576 1554.25 69.3758 Q1550.97 66.1351 1550.97 57.6282 L1550.97 32.9987 L1545.5 32.9987 L1545.5 27.2059 L1550.97 27.2059 L1550.97 14.324 L1558.46 14.324 Z" fill="#000000" fill-rule="nonzero" fill-opacity="1" /><path clip-path="url(#clip550)" d="M1590.99 14.324 L1590.99 27.2059 L1606.34 27.2059 L1606.34 32.9987 L1590.99 32.9987 L1590.99 57.6282 Q1590.99 63.1779 1592.49 64.7578 Q1594.03 66.3376 1598.69 66.3376 L1606.34 66.3376 L1606.34 72.576 L1598.69 72.576 Q1590.06 72.576 1586.78 69.3758 Q1583.5 66.1351 1583.5 57.6282 L1583.5 32.9987 L1578.03 32.9987 L1578.03 27.2059 L1583.5 27.2059 L1583.5 14.324 L1590.99 14.324 Z" fill="#000000" fill-rule="nonzero" fill-opacity="1" /><path clip-path="url(#clip550)" d="M1654.95 48.0275 L1654.95 51.6733 L1620.68 51.6733 Q1621.17 59.3701 1625.3 63.421 Q1629.47 67.4314 1636.89 67.4314 Q1641.18 67.4314 1645.19 66.3781 Q1649.24 65.3249 1653.21 63.2184 L1653.21 70.267 Q1649.2 71.9684 1644.99 72.8596 Q1640.78 73.7508 1636.44 73.7508 Q1625.58 73.7508 1619.22 67.4314 Q1612.91 61.1119 1612.91 50.3365 Q1612.91 39.1965 1618.9 32.6746 Q1624.94 26.1121 1635.14 26.1121 Q1644.3 26.1121 1649.61 32.0264 Q1654.95 37.9003 1654.95 48.0275 M1647.5 45.84 Q1647.42 39.7232 1644.06 36.0774 Q1640.74 32.4315 1635.23 32.4315 Q1628.99 32.4315 1625.22 35.9558 Q1621.49 39.4801 1620.93 45.8805 L1647.5 45.84 Z" fill="#000000" fill-rule="nonzero" fill-opacity="1" /><path clip-path="url(#clip550)" d="M1693.48 34.1734 Q1692.22 33.4443 1690.72 33.1202 Q1689.26 32.7556 1687.48 32.7556 Q1681.16 32.7556 1677.76 36.8875 Q1674.4 40.9789 1674.4 48.6757 L1674.4 72.576 L1666.9 72.576 L1666.9 27.2059 L1674.4 27.2059 L1674.4 34.2544 Q1676.75 30.1225 1680.51 28.1376 Q1684.28 26.1121 1689.67 26.1121 Q1690.44 26.1121 1691.37 26.2337 Q1692.3 26.3147 1693.44 26.5172 L1693.48 34.1734 Z" fill="#000000" fill-rule="nonzero" fill-opacity="1" /><path clip-path="url(#clip550)" d="M1737.55 45.1919 L1737.55 72.576 L1730.1 72.576 L1730.1 45.4349 Q1730.1 38.994 1727.59 35.7938 Q1725.07 32.5936 1720.05 32.5936 Q1714.02 32.5936 1710.53 36.4419 Q1707.05 40.2903 1707.05 46.9338 L1707.05 72.576 L1699.55 72.576 L1699.55 27.2059 L1707.05 27.2059 L1707.05 34.2544 Q1709.72 30.163 1713.33 28.1376 Q1716.97 26.1121 1721.71 26.1121 Q1729.53 26.1121 1733.54 30.9732 Q1737.55 35.7938 1737.55 45.1919 Z" fill="#000000" fill-rule="nonzero" fill-opacity="1" /><polyline clip-path="url(#clip552)" style="stroke:#009af9; stroke-linecap:round; stroke-linejoin:round; stroke-width:4; stroke-opacity:1; fill:none" points="235.181,1450.83 255.948,1450.7 276.714,1450.3 297.481,1449.64 318.248,1448.72 339.014,1447.54 359.781,1446.09 380.548,1444.38 401.314,1442.41 422.081,1440.18 442.848,1437.68 463.614,1434.92 484.381,1431.89 505.148,1428.61 525.914,1425.06 546.681,1421.24 567.447,1417.17 588.214,1412.83 608.981,1408.23 629.747,1403.36 650.514,1398.23 671.281,1392.84 692.047,1387.19 712.814,1381.27 733.581,1375.09 754.347,1368.65 775.114,1361.94 795.881,1354.97 816.647,1347.74 837.414,1340.25 858.181,1332.49 878.947,1324.47 899.714,1316.19 920.48,1307.64 941.247,1298.83 962.014,1289.76 982.78,1280.42 1003.55,1270.82 1024.31,1260.96 1045.08,1250.84 1065.85,1240.45 1086.61,1229.8 1107.38,1218.89 1128.15,1207.71 1148.91,1196.27 1169.68,1184.57 1190.45,1172.6 1211.21,1160.37 1231.98,1147.88 1252.75,1135.13 1273.51,1122.11 1294.28,1108.83 1315.05,1095.29 1335.81,1081.48 1356.58,1067.41 1377.35,1053.08 1398.11,1038.49 1418.88,1023.63 1439.65,1008.51 1460.41,993.124 1481.18,977.478 1501.95,961.568 1522.71,945.395 1543.48,928.959 1564.25,912.26 1585.01,895.299 1605.78,878.074 1626.55,860.586 1647.31,842.836 1668.08,824.822 1688.85,806.546 1709.61,788.006 1730.38,769.204 1751.15,750.138 1771.91,730.81 1792.68,711.218 1813.45,691.364 1834.21,671.247 1854.98,650.866 1875.75,630.223 1896.51,609.317 1917.28,588.148 1938.05,566.715 1958.81,545.02 1979.58,523.062 2000.35,500.841 2021.11,478.357 2041.88,455.61 2062.65,432.6 2083.41,409.327 2104.18,385.791 2124.95,361.992 2145.71,337.93 2166.48,313.605 2187.25,289.017 2208.01,264.166 2228.78,239.052 2249.55,213.675 2270.31,188.036 2291.08,162.133 "/>
</svg>
